<svg width="46" height="42" viewBox="0 0 46 42" fill="none" xmlns="http://www.w3.org/2000/svg">
<path d="M43.7 9.33333H29.9C28.6281 9.33333 27.6 10.3763 27.6 11.6667V18.6667H23V2.33333C23 1.043 21.9719 0 20.7 0H2.3C1.0281 0 0 1.043 0 2.33333V39.6667C0 40.957 1.0281 42 2.3 42H18.4H20.7H29.9H32.2H43.7C44.9719 42 46 40.957 46 39.6667V11.6667C46 10.3763 44.9719 9.33333 43.7 9.33333ZM13.8 7H18.4V11.6667H13.8V7ZM9.2 30.3333H4.6V25.6667H9.2V30.3333ZM9.2 21H4.6V16.3333H9.2V21ZM9.2 11.6667H4.6V7H9.2V11.6667ZM18.4 30.3333H13.8V25.6667H18.4V30.3333ZM18.4 21H13.8V16.3333H18.4V18.6667V21ZM39.1 30.3333H34.5V25.6667H39.1V30.3333ZM39.1 21H34.5V16.3333H39.1V21Z" fill="#2B9140"/>
</svg>
