<svg width="40" height="40" viewBox="0 0 40 40" fill="none" xmlns="http://www.w3.org/2000/svg">
<path d="M13.3847 8.30198C13.44 8.36806 13.4632 8.45515 13.4485 8.54002M13.3847 8.30198L13.4614 8.23781C13.5356 8.32656 13.5667 8.44338 13.5471 8.55704L13.547 8.55729C13.528 8.66616 13.519 8.79174 13.519 8.96772V11.1838C13.519 11.3174 13.6334 11.4319 13.7673 11.4319H26.8274C26.8449 11.4319 26.8551 11.4301 26.8747 11.4265L26.8778 11.426C26.9227 11.4167 26.9499 11.4064 26.9955 11.3805C27.0431 11.3425 27.0827 11.27 27.0827 11.1838V8.96772C27.0827 8.83954 27.0786 8.69834 27.0515 8.57214C27.0264 8.45658 27.0545 8.33588 27.1289 8.24364L27.1292 8.24327C27.2038 8.15166 27.3151 8.09805 27.4337 8.09805H33.0175C33.946 8.09805 34.7022 8.85047 34.7022 9.7764V37.2328V37.2329C34.7019 38.1615 33.946 38.9167 33.0172 38.9167H32.9592L32.9591 38.9167H7.57782C6.65247 38.9167 5.90004 38.161 5.90004 37.2322V21.1408C5.90004 20.9244 6.07502 20.7494 6.29143 20.7494C6.50783 20.7494 6.68283 20.9244 6.68283 21.1408V37.2329C6.68283 37.7304 7.08491 38.1345 7.57785 38.1345H33.0172C33.5141 38.1345 33.9191 37.73 33.9191 37.2329V9.77649C33.9191 9.28327 33.515 8.88096 33.0172 8.88096H27.8646C27.8651 8.91094 27.8652 8.93996 27.8652 8.96785V11.184C27.8652 11.5232 27.7047 11.8333 27.4262 12.0332L27.4193 12.0382L27.4191 12.0379C27.2764 12.1231 27.1706 12.1645 27.0365 12.193L27.0327 12.1938L27.0327 12.1938C26.9593 12.2064 26.9062 12.2148 26.8274 12.2148L13.7673 12.2151C13.1987 12.2151 12.7362 11.7529 12.7362 11.1843V8.96818C12.7362 8.93833 12.7364 8.90939 12.7368 8.88129H7.57781C7.08431 8.88129 6.68279 9.28296 6.68279 9.77681V18.9132C6.68279 19.1296 6.50781 19.3045 6.29139 19.3045C6.07499 19.3045 5.9 19.1296 5.9 18.9132V9.77611C5.9 8.85058 6.65278 8.09775 7.57779 8.09775H13.1616L13.4485 8.54002M13.3847 8.30198C13.3294 8.23591 13.2476 8.19775 13.1616 8.19775H7.57779C6.70803 8.19775 6 8.90579 6 9.77611V18.9132C6 19.0743 6.13022 19.2045 6.29139 19.2045C6.45258 19.2045 6.58279 19.0743 6.58279 18.9132V9.77681C6.58279 9.22778 7.02903 8.78129 7.57781 8.78129H12.7394L13.4614 8.23781L13.3847 8.30198ZM13.4485 8.54002C13.4281 8.65669 13.419 8.78856 13.419 8.96772M13.4485 8.54002L13.419 8.96772M13.419 8.96772V11.1838M13.419 8.96772V11.1838M13.419 11.1838C13.419 11.3726 13.5782 11.5319 13.7673 11.5319M13.419 11.1838L13.7673 11.5319M13.7673 11.5319H26.8274M13.7673 11.5319H26.8274M26.8274 11.5319C26.8541 11.5319 26.8722 11.5286 26.8916 11.5251M26.8274 11.5319L26.8916 11.5251M26.8916 11.5251L26.8968 11.5242M26.8916 11.5251L26.8968 11.5242M26.8968 11.5242C26.956 11.512 26.9936 11.4971 27.0511 11.4639L26.8968 11.5242Z" fill="#808181" stroke="#808181" stroke-width="0.2"/>
<path d="M8.70279 10.9074C8.62915 10.9808 8.58799 11.0804 8.58799 11.1842V11.1842L8.58965 35.8316C8.58965 36.048 8.76464 36.223 8.98104 36.223H31.612H31.6429L31.6452 36.2214C31.8463 36.2048 32.0038 36.0366 32.0038 35.8311V29.6115C32.0038 29.5993 32.0032 29.5872 32.0021 29.5751V21.6907C32.0021 21.4743 31.8271 21.2993 31.6107 21.2993C31.3943 21.2993 31.2193 21.4743 31.2193 21.6907V29.6118C31.2193 29.624 31.2199 29.6361 31.221 29.6482L31.2212 35.44H9.37271L9.37107 11.5751H12.814C12.9681 11.9502 13.3377 12.2151 13.768 12.2151H26.8281C26.9019 12.2151 26.9534 12.2072 27.0346 12.1939L27.0346 12.194L27.0397 12.1929C27.1739 12.1636 27.279 12.1222 27.4201 12.0382L27.4203 12.0385L27.4272 12.0335C27.593 11.9145 27.7171 11.7561 27.7905 11.5751H31.219V19.3906C31.219 19.607 31.394 19.782 31.6104 19.782C31.8269 19.782 32.0018 19.607 32.0018 19.3906V11.1842C32.0018 10.9678 31.8268 10.7928 31.6104 10.7928H27.4748C27.2584 10.7928 27.0834 10.9678 27.0834 11.1842C27.0834 11.2708 27.0437 11.3435 26.9962 11.3814C26.9525 11.4063 26.9246 11.417 26.8716 11.428C26.8543 11.4311 26.8443 11.4328 26.8281 11.4328H13.768C13.6343 11.4328 13.5197 11.3182 13.5197 11.1842C13.5197 10.9678 13.3447 10.7928 13.1283 10.7928H8.97938C8.87539 10.7928 8.77621 10.8341 8.70279 10.9074ZM8.70279 10.9074C8.70276 10.9075 8.70273 10.9075 8.7027 10.9075L8.77341 10.9782L8.70288 10.9074C8.70285 10.9074 8.70282 10.9074 8.70279 10.9074Z" fill="#808181" stroke="#808181" stroke-width="0.2"/>
<path d="M26.8811 12.2168H26.833H13.7701C13.1987 12.2168 12.7342 11.7523 12.7342 11.1812V8.96785C12.7342 6.98272 14.3233 5.36166 16.2962 5.30965V4.90409C16.2962 3.82735 16.7129 2.82122 17.4706 2.07155C18.2764 1.25608 19.4131 0.833066 20.5721 0.908639L20.5721 0.90864C22.6737 1.04615 24.313 2.88267 24.313 5.08075V5.31039C26.2825 5.36621 27.8675 6.98565 27.8675 8.9684V11.1817V11.1817H27.7675C27.7678 11.6971 27.3481 12.1167 26.833 12.1167L26.8811 12.2168ZM26.8811 12.2168L26.882 12.2156L26.8811 12.2168ZM23.5294 5.70001V5.69993L23.53 5.08046L23.5294 5.70001ZM23.5294 5.70001C23.5294 5.91643 23.7044 6.09141 23.9208 6.09141H24.2072C25.7936 6.09141 27.0842 7.38202 27.0842 8.96813V11.1815C27.0842 11.3209 26.9711 11.434 26.8325 11.434H13.7695C13.6301 11.434 13.5168 11.3206 13.5168 11.1815V8.96813C13.5168 7.38195 14.8073 6.09141 16.3937 6.09141L16.6873 6.09142C16.9038 6.09142 17.0787 5.91642 17.0787 5.70002V4.90409C17.0787 4.03722 17.4139 3.22881 18.0237 2.62521L18.0244 2.62446C18.6719 1.96972 19.5746 1.62708 20.5212 1.68962L20.5212 1.68962M23.5294 5.70001L20.5212 1.68962M20.5212 1.68962C22.2034 1.79975 23.5299 3.2845 23.53 5.08037L20.5212 1.68962Z" fill="#808181" stroke="#808181" stroke-width="0.2"/>
<path d="M18.4493 4.99338C18.4493 6.014 19.2796 6.84421 20.3007 6.84421C21.3219 6.84421 22.1521 6.01407 22.1521 4.99338C22.1521 3.97224 21.3219 3.1417 20.3007 3.1417C19.2795 3.1417 18.4493 3.97224 18.4493 4.99338ZM19.2321 4.99338C19.2321 4.40385 19.7115 3.92446 20.3007 3.92446C20.8899 3.92446 21.3694 4.40387 21.3694 4.99338C21.3694 5.58228 20.89 6.06145 20.3007 6.06145C19.7114 6.06145 19.2321 5.58227 19.2321 4.99338Z" fill="#808181" stroke="#808181" stroke-width="0.2"/>
<path d="M18.6244 17.6239H21.9746C22.1911 17.6239 22.366 17.4485 22.366 17.2325V14.5187C22.366 14.3023 22.191 14.1273 21.9746 14.1273H18.6244C18.408 14.1273 18.233 14.3023 18.233 14.5187V17.2325C18.233 17.4489 18.408 17.6239 18.6244 17.6239ZM21.5832 14.9101V16.8411H19.0158V14.9099L21.5832 14.9101Z" fill="#C47A2C" stroke="#C47A2C" stroke-width="0.2"/>
<path d="M11.9677 26.1141H15.3179C15.5343 26.1141 15.7093 25.9391 15.7093 25.7227V23.0092C15.7093 22.7928 15.5343 22.6178 15.3179 22.6178H11.9677C11.7513 22.6178 11.5763 22.7928 11.5763 23.0092V25.7227C11.5763 25.9391 11.7513 26.1141 11.9677 26.1141ZM14.9265 23.4006V25.3313H12.359V23.4006H14.9265Z" fill="#C47A2C" stroke="#C47A2C" stroke-width="0.2"/>
<path d="M18.6244 26.1141H21.9746C22.191 26.1141 22.366 25.9391 22.366 25.7227V23.0092C22.366 22.7928 22.191 22.6178 21.9746 22.6178H18.6244C18.408 22.6178 18.233 22.7928 18.233 23.0092V25.7227C18.233 25.9391 18.408 26.1141 18.6244 26.1141ZM21.5832 23.4006V25.3313H19.0158V23.4006H21.5832Z" fill="#C47A2C" stroke="#C47A2C" stroke-width="0.2"/>
<path d="M25.2836 26.1141H28.6344C28.8508 26.1141 29.0257 25.9391 29.0257 25.7227V23.0092C29.0257 22.7928 28.8508 22.6178 28.6344 22.6178H25.2836C25.0672 22.6178 24.8922 22.7928 24.8922 23.0092V25.7227C24.8922 25.9391 25.0672 26.1141 25.2836 26.1141ZM28.2429 23.4006V25.3313H25.675V23.4006H28.2429Z" fill="#C47A2C" stroke="#C47A2C" stroke-width="0.2"/>
<path d="M18.6244 34.6043H21.9746C22.1911 34.6043 22.366 34.429 22.366 34.2129V31.4994C22.366 31.283 22.191 31.108 21.9746 31.108H18.6244C18.408 31.108 18.233 31.283 18.233 31.4994V34.2129C18.233 34.4293 18.408 34.6043 18.6244 34.6043ZM21.5832 31.8906V33.8212H19.0158V31.8906H21.5832Z" fill="#C47A2C" stroke="#C47A2C" stroke-width="0.2"/>
<path d="M26.5648 23.0077C26.5648 23.224 26.7396 23.3989 26.9559 23.399H26.9562C27.1722 23.3989 27.3473 23.2236 27.3473 23.0074V20.1203C27.3473 19.9038 27.1723 19.7289 26.9559 19.7289H13.6403C13.4239 19.7289 13.2489 19.9038 13.2489 20.1203V23.0074C13.2489 23.2238 13.4239 23.3988 13.6403 23.3988C13.8567 23.3988 14.0317 23.2238 14.0317 23.0074V20.5116L26.5648 20.5119V23.0077Z" fill="#C47A2C" stroke="#C47A2C" stroke-width="0.2"/>
<path d="M19.9015 31.4994C19.9015 31.7158 20.0765 31.8908 20.2929 31.8908C20.5093 31.8908 20.6843 31.7158 20.6843 31.4994V29.0036H26.9524C27.1688 29.0036 27.3438 28.8286 27.3438 28.6122V25.7096C27.3438 25.4932 27.1688 25.3182 26.9524 25.3182C26.736 25.3182 26.561 25.4932 26.561 25.7096V28.2209H20.2929C20.0764 28.2209 19.9015 28.3958 19.9015 28.6122V31.4994Z" fill="#C47A2C" stroke="#C47A2C" stroke-width="0.2"/>
<path d="M19.91 23.0079C19.91 23.2243 20.085 23.3993 20.3014 23.3993C20.5179 23.3993 20.6928 23.224 20.6928 23.0079V17.2328C20.6928 17.0164 20.5178 16.8414 20.3014 16.8414C20.085 16.8414 19.91 17.0164 19.91 17.2328V23.0079Z" fill="#C47A2C" stroke="#C47A2C" stroke-width="0.2"/>
</svg>
