<svg width="40" height="40" viewBox="0 0 40 40" fill="none" xmlns="http://www.w3.org/2000/svg">
<path d="M22.7135 36.0466H6.04664C5.51629 36.0466 5.00756 35.8359 4.63236 35.4609C4.25736 35.0857 4.04664 34.577 4.04664 34.0466V10.0466C4.04553 9.86941 4.11517 9.6991 4.23995 9.5732L9.5732 4.23995C9.69909 4.11517 9.86941 4.04553 10.0466 4.04664H27.3798C27.9104 4.04664 28.4191 4.25736 28.7941 4.63236C29.1691 5.00758 29.3798 5.5163 29.3798 6.04664V12.7135C29.3798 13.0816 29.0813 13.38 28.7133 13.38C28.345 13.38 28.0465 13.0816 28.0465 12.7135V6.04664C28.0465 5.86986 27.9762 5.70022 27.8512 5.57522C27.7262 5.45022 27.5566 5.3799 27.3798 5.3799H10.3198L5.37962 10.3201V34.0464C5.37962 34.2231 5.44993 34.3928 5.57493 34.5178C5.69993 34.6428 5.86957 34.7131 6.04636 34.7131H22.7132C23.0813 34.7131 23.3797 35.0115 23.3797 35.3796C23.3797 35.7479 23.0813 36.0464 22.7132 36.0464L22.7135 36.0466Z" fill="#808181"/>
<path d="M10.0466 10.7136H4.71337C4.34507 10.7136 4.04663 10.415 4.04663 10.0469C4.04663 9.6788 4.34507 9.38013 4.71337 9.38013H9.37989V4.71362C9.37989 4.34532 9.67855 4.04688 10.0466 4.04688C10.4147 4.04688 10.7134 4.34532 10.7134 4.71362V10.0469C10.7134 10.2237 10.6431 10.3933 10.5181 10.5183C10.3931 10.6433 10.2234 10.7136 10.0466 10.7136Z" fill="#808181"/>
<path d="M28.7136 29.3799C26.7685 29.3799 24.9033 28.6073 23.5281 27.2321C22.1529 25.8569 21.3801 23.9915 21.3801 22.0466C21.3801 20.1018 22.1529 18.2364 23.5281 16.8612C24.9034 15.486 26.7685 14.7134 28.7136 14.7134C30.6585 14.7134 32.5237 15.486 33.8989 16.8612C35.2743 18.2364 36.0469 20.1018 36.0469 22.0466C36.0469 23.9915 35.2743 25.8569 33.8989 27.2321C32.5237 28.6073 30.6585 29.3799 28.7136 29.3799ZM28.7136 16.0468C27.1223 16.0468 25.5962 16.6789 24.471 17.8041C23.3458 18.9294 22.7136 20.4554 22.7136 22.0468C22.7136 23.6381 23.3457 25.1642 24.471 26.2894C25.5962 27.4146 27.1223 28.0468 28.7136 28.0468C30.3049 28.0468 31.831 27.4146 32.9562 26.2894C34.0814 25.1642 34.7136 23.6381 34.7136 22.0468C34.7136 20.4554 34.0815 18.9293 32.9562 17.8041C31.831 16.6789 30.3049 16.0468 28.7136 16.0468V16.0468Z" fill="#C47A2C"/>
<path d="M32.0467 36.0467C31.8694 36.0479 31.6991 35.9782 31.5732 35.8534L28.7134 32.9867L25.8533 35.8468C25.6634 36.0383 25.377 36.0963 25.1274 35.9943C24.8779 35.8921 24.7145 35.6497 24.7134 35.38V28.0469C24.7134 27.6788 25.0118 27.3801 25.3799 27.3801C25.7482 27.3801 26.0466 27.6788 26.0466 28.0469V33.7732L28.24 31.5798C28.5 31.3214 28.9198 31.3214 29.1799 31.5798L31.3799 33.7732V28.0469C31.3799 27.6788 31.6786 27.3801 32.0466 27.3801C32.4147 27.3801 32.7134 27.6788 32.7134 28.0469V35.38C32.7134 35.5568 32.6431 35.7264 32.5181 35.8514C32.3931 35.9764 32.2234 36.0468 32.0466 36.0468L32.0467 36.0467Z" fill="#C47A2C"/>
<path d="M27.3797 24.7136C27.2025 24.7145 27.0322 24.6451 26.9065 24.5203L25.573 23.1868C25.3467 22.9223 25.3619 22.5281 25.6081 22.2819C25.8543 22.0355 26.2487 22.0203 26.5132 22.2468L27.3797 23.1069L30.9065 19.5801C31.171 19.3538 31.5652 19.3689 31.8114 19.6151C32.0579 19.8614 32.073 20.2558 31.8465 20.5203L27.8465 24.5203C27.7224 24.6433 27.5547 24.7127 27.3797 24.7136H27.3797Z" fill="#C47A2C"/>
<path d="M18.7135 16.0466H8.04663C7.67855 16.0466 7.37988 15.7482 7.37988 15.3799C7.37988 15.0118 7.67855 14.7134 8.04663 14.7134H18.7135C19.0816 14.7134 19.38 15.0118 19.38 15.3799C19.38 15.7482 19.0816 16.0466 18.7135 16.0466Z" fill="#808181"/>
<path d="M18.7135 19.3799H8.04663C7.67855 19.3799 7.37988 19.0814 7.37988 18.7134C7.37988 18.3451 7.67855 18.0466 8.04663 18.0466H18.7135C19.0816 18.0466 19.38 18.3451 19.38 18.7134C19.38 19.0815 19.0816 19.3799 18.7135 19.3799Z" fill="#808181"/>
<path d="M18.7135 22.7136H8.04663C7.67855 22.7136 7.37988 22.4149 7.37988 22.0469C7.37988 21.6788 7.67855 21.3801 8.04663 21.3801H18.7135C19.0816 21.3801 19.38 21.6788 19.38 22.0469C19.38 22.4149 19.0816 22.7136 18.7135 22.7136Z" fill="#808181"/>
<path d="M18.7135 26.0466H8.04663C7.67855 26.0466 7.37988 25.7482 7.37988 25.3799C7.37988 25.0118 7.67855 24.7134 8.04663 24.7134H18.7135C19.0816 24.7134 19.38 25.0118 19.38 25.3799C19.38 25.7482 19.0816 26.0466 18.7135 26.0466Z" fill="#808181"/>
<path d="M18.7135 29.3799H8.04663C7.67855 29.3799 7.37988 29.0814 7.37988 28.7134C7.37988 28.3451 7.67855 28.0466 8.04663 28.0466H18.7135C19.0816 28.0466 19.38 28.3451 19.38 28.7134C19.38 29.0815 19.0816 29.3799 18.7135 29.3799Z" fill="#808181"/>
</svg>
