<svg width="40" height="40" viewBox="0 0 40 40" fill="none" xmlns="http://www.w3.org/2000/svg">
<path d="M5 9.5V4H20.5M20.5 4V11.5H28.5M20.5 4L28.5 11.5M28.5 11.5V15.5M5 12V36H28.5V32.5M9.40423 31H19.5M9.40423 17.5H20.5M9.40423 22H17.477M9.40423 26.5H17.9042" stroke="#808181" stroke-linecap="round" stroke-linejoin="round"/>
<line x1="30.482" y1="29.2251" x2="35.7749" y2="34.518" stroke="#808181" stroke-linecap="round"/>
<path d="M32.0611 24C32.0611 27.8997 28.8997 31.0611 25 31.0611C21.1003 31.0611 17.9389 27.8997 17.9389 24C17.9389 20.1003 21.1003 16.9389 25 16.9389C28.8997 16.9389 32.0611 20.1003 32.0611 24ZM33.05 24C33.05 19.5541 29.4459 15.95 25 15.95C20.5541 15.95 16.95 19.5541 16.95 24C16.95 28.4459 20.5541 32.05 25 32.05C27.0415 32.05 28.9057 31.29 30.3247 30.0375C31.9959 28.5625 33.05 26.4043 33.05 24Z" fill="#808181" stroke="#808181" stroke-width="0.1"/>
<path d="M25 19.5V20.5M25 23V27.5" stroke="#808181" stroke-linecap="round" stroke-linejoin="round"/>
</svg>
