<svg width="40" height="40" viewBox="0 0 40 40" fill="none" xmlns="http://www.w3.org/2000/svg">
<path d="M13.0961 27.032C12.7681 27.032 12.4961 27.296 12.4961 27.632C12.4961 27.96 12.7681 28.224 13.0961 28.224C13.4241 28.224 13.6961 27.96 13.6961 27.632C13.6961 27.296 13.4241 27.032 13.0961 27.032Z" fill="#808181"/>
<path d="M37.2561 3.88C37.1441 3.768 36.9841 3.704 36.8241 3.704H33.4161V1.496C33.4161 1.168 33.1441 0.895996 32.8161 0.895996H6.72012C6.39212 0.895996 6.12012 1.168 6.12012 1.496V35.488C6.12012 35.816 6.39212 36.088 6.72012 36.088H12.5041V38.296C12.5041 38.456 12.5681 38.608 12.6801 38.72C12.7921 38.832 12.9441 38.896 13.1041 38.896H36.8321C37.0001 38.896 37.1441 38.832 37.2561 38.72C37.3681 38.608 37.4321 38.456 37.4321 38.296V10.888C37.4321 10.872 37.4321 10.864 37.4321 10.848V4.304C37.4241 4.144 37.3601 3.992 37.2561 3.88ZM36.2241 37.696H13.6961V35.496C13.6961 35.496 13.6961 35.496 13.6961 35.488C13.6961 35.48 13.6961 35.488 13.6961 35.48V29.224C13.6961 28.888 13.4241 28.624 13.0961 28.624C12.7681 28.624 12.4961 28.888 12.4961 29.224V34.88H7.32012V2.096H32.2241V3.704H13.1041C12.9441 3.704 12.7921 3.768 12.6801 3.88C12.5681 3.992 12.5041 4.144 12.5041 4.304V26.032C12.5041 26.36 12.7761 26.632 13.1041 26.632C13.4321 26.632 13.7041 26.36 13.7041 26.032V4.904H36.2321V37.696H36.2241Z" fill="#808181"/>
<path d="M24.464 10.616H33.528C33.856 10.616 34.128 10.344 34.128 10.016C34.128 9.68802 33.856 9.41602 33.528 9.41602H24.464C24.136 9.41602 23.864 9.68802 23.864 10.016C23.864 10.344 24.128 10.616 24.464 10.616Z" fill="#C47A2C"/>
<path d="M24.464 14.448H33.528C33.856 14.448 34.128 14.176 34.128 13.848C34.128 13.52 33.856 13.248 33.528 13.248H24.464C24.136 13.248 23.864 13.52 23.864 13.848C23.864 14.176 24.128 14.448 24.464 14.448Z" fill="#C47A2C"/>
<path d="M24.464 18.272H33.528C33.856 18.272 34.128 18 34.128 17.672C34.128 17.344 33.856 17.072 33.528 17.072H24.464C24.136 17.072 23.864 17.344 23.864 17.672C23.864 18 24.128 18.272 24.464 18.272Z" fill="#C47A2C"/>
<path d="M16.4 22.1041H33.5281C33.8561 22.1041 34.1281 21.8321 34.1281 21.5041C34.1281 21.1761 33.8561 20.9041 33.5281 20.9041H16.4C16.072 20.9041 15.8 21.1761 15.8 21.5041C15.8 21.8321 16.072 22.1041 16.4 22.1041Z" fill="#C47A2C"/>
<path d="M16.4 25.9361H33.5281C33.8561 25.9361 34.1281 25.6641 34.1281 25.3361C34.1281 25.0081 33.8561 24.7361 33.5281 24.7361H16.4C16.072 24.7361 15.8 25.0081 15.8 25.3361C15.8 25.6641 16.072 25.9361 16.4 25.9361Z" fill="#C47A2C"/>
<path d="M16.4 29.7681H28.024C28.352 29.7681 28.624 29.4961 28.624 29.1681C28.624 28.8401 28.352 28.5681 28.024 28.5681H16.4C16.072 28.5681 15.8 28.8401 15.8 29.1681C15.8 29.4961 16.072 29.7681 16.4 29.7681Z" fill="#C47A2C"/>
<path d="M16.4 33.2879H28.024C28.352 33.2879 28.624 33.0159 28.624 32.6879C28.624 32.3599 28.352 32.0879 28.024 32.0879H16.4C16.072 32.0879 15.8 32.3599 15.8 32.6879C15.8 33.0159 16.072 33.2879 16.4 33.2879Z" fill="#C47A2C"/>
</svg>
