<svg width="70" height="70" viewBox="0 0 70 70" fill="none" xmlns="http://www.w3.org/2000/svg">
<path d="M17.5181 29.84C17.2432 29.8144 16.9995 30.0166 16.9739 30.2915C16.9483 30.5665 17.1504 30.8101 17.4254 30.8357L17.5181 29.84ZM25.7925 37.199L25.634 36.7248C25.6115 36.7323 25.5896 36.7414 25.5684 36.7521L25.7925 37.199ZM31.4982 35.8189C31.7601 35.7313 31.9014 35.448 31.8139 35.1861C31.7263 34.9242 31.443 34.7829 31.1811 34.8705L31.4982 35.8189ZM33.1887 27L33.2341 26.5021C33.1476 26.4942 33.0604 26.509 32.9813 26.545L33.1887 27ZM43.3585 27.9272L43.3131 28.4251C43.4143 28.4343 43.5159 28.4125 43.6044 28.3625L43.3585 27.9272ZM45.2459 27.4354C45.4863 27.2995 45.5712 26.9945 45.4354 26.7541C45.2995 26.5137 44.9945 26.4288 44.7541 26.5646L45.2459 27.4354ZM35.0378 32.9903C34.7616 32.9903 34.5378 33.2141 34.5378 33.4903C34.5378 33.7664 34.7616 33.9903 35.0378 33.9903V32.9903ZM38.7359 33.4903L39.0138 33.0746C38.9315 33.0196 38.8348 32.9903 38.7359 32.9903V33.4903ZM46.7787 39.4691C47.0083 39.6225 47.3188 39.5609 47.4723 39.3313C47.6258 39.1017 47.5641 38.7912 47.3345 38.6377L46.7787 39.4691ZM59.849 41.8581C60.0467 41.6654 60.0508 41.3488 59.8581 41.151C59.6654 40.9533 59.3488 40.9492 59.151 41.1419L59.849 41.8581ZM55.9529 44.2584C55.7552 44.4511 55.7511 44.7677 55.9438 44.9655C56.1365 45.1632 56.4531 45.1673 56.6508 44.9746L55.9529 44.2584ZM41.7673 58.0958C41.5306 57.9535 41.2234 58.0299 41.081 58.2665C40.9387 58.5031 41.0151 58.8103 41.2517 58.9527L41.7673 58.0958ZM43.3585 60.3062L42.9273 60.5593L43.3585 60.3062ZM46.7304 54.4448L46.4015 54.8214C46.4051 54.8246 46.4088 54.8277 46.4126 54.8308L46.7304 54.4448ZM47.0464 45.6125C46.8324 45.438 46.5175 45.47 46.3429 45.684C46.1684 45.898 46.2004 46.2129 46.4144 46.3875L47.0464 45.6125ZM52.2628 50.5125L51.9467 50.9L51.9547 50.9063L52.2628 50.5125ZM51.0036 41.4013C50.764 41.2638 50.4585 41.3466 50.321 41.5861C50.1836 41.8256 50.2664 42.1312 50.5059 42.2686L51.0036 41.4013ZM25.7925 60.3786L26.1831 60.6907C26.1932 60.6782 26.2026 60.6651 26.2114 60.6517L25.7925 60.3786ZM20.2453 56.6699L20.6429 56.9731C20.6516 56.9617 20.6598 56.9499 20.6675 56.9378L20.2453 56.6699ZM25.7925 47.9277L25.3741 47.6539L25.3703 47.6598L25.7925 47.9277ZM15.6227 50.1796L16.047 50.4441C16.0523 50.4357 16.0572 50.4272 16.0619 50.4185L15.6227 50.1796ZM35.0377 56.6699L35.445 56.96C35.4481 56.9556 35.4511 56.9512 35.4541 56.9467L35.0377 56.6699ZM31.3396 61.8621L30.9323 61.5721C30.9282 61.5778 30.9242 61.5837 30.9204 61.5896L31.3396 61.8621ZM35.9622 65.9417L36.3566 66.2491L35.9622 65.9417ZM38.7358 61.3058L39.2183 61.437L38.7358 61.3058ZM37.8113 63.6025L37.3807 63.3484L37.8113 63.6025ZM10.7043 47.5436C10.4523 47.4308 10.1565 47.5437 10.0436 47.7957C9.93081 48.0477 10.0437 48.3435 10.2957 48.4564L10.7043 47.5436ZM43.6874 51.1234C43.4794 50.9418 43.1636 50.9631 42.9819 51.1711C42.8003 51.3791 42.8216 51.695 43.0296 51.8766L43.6874 51.1234ZM17.4718 30.3379C17.4254 30.8357 17.4254 30.8357 17.4254 30.8357C17.4254 30.8357 17.4255 30.8357 17.4256 30.8357C17.4257 30.8357 17.426 30.8358 17.4263 30.8358C17.427 30.8359 17.4281 30.836 17.4296 30.8361C17.4326 30.8364 17.437 30.8368 17.443 30.8374C17.4548 30.8385 17.4726 30.8402 17.4958 30.8425C17.5423 30.847 17.6106 30.8537 17.6974 30.8625C17.8709 30.8802 18.1181 30.9063 18.412 30.9397C19.0006 31.0066 19.7728 31.1028 20.5139 31.22C21.2634 31.3385 21.9519 31.4742 22.3882 31.6154C22.6287 31.6933 22.7056 31.7467 22.7039 31.7451C22.6961 31.7378 22.5967 31.6414 22.6105 31.4671C22.617 31.3857 22.6471 31.3244 22.6729 31.2869C22.6969 31.2522 22.7179 31.2367 22.7184 31.2363L23.3195 32.0355C23.4257 31.9556 23.5875 31.7974 23.6074 31.5463C23.628 31.2869 23.4844 31.1062 23.3881 31.0159C23.2095 30.8482 22.9324 30.7405 22.6962 30.664C22.1791 30.4967 21.423 30.3513 20.6701 30.2323C19.909 30.1119 19.121 30.0139 18.525 29.9461C18.2266 29.9122 17.9755 29.8857 17.7987 29.8677C17.7103 29.8587 17.6404 29.8518 17.5926 29.8471C17.5686 29.8448 17.5502 29.8431 17.5376 29.8419C17.5313 29.8413 17.5265 29.8408 17.5233 29.8405C17.5216 29.8403 17.5204 29.8402 17.5195 29.8402C17.5191 29.8401 17.5188 29.8401 17.5185 29.8401C17.5184 29.84 17.5183 29.84 17.5182 29.84C17.5182 29.84 17.5181 29.84 17.4718 30.3379ZM22.7184 31.2363C20.6961 32.7574 20.3667 34.8759 21.1929 36.3948C22.0203 37.9161 23.9363 38.6892 26.0166 37.646L25.5684 36.7521C23.9506 37.5633 22.6308 36.9456 22.0714 35.917C21.5107 34.8862 21.6436 33.296 23.3195 32.0355L22.7184 31.2363ZM25.951 37.6732L31.4982 35.8189L31.1811 34.8705L25.634 36.7248L25.951 37.6732ZM23.2263 32.0909L33.3961 27.455L32.9813 26.545L22.8115 31.181L23.2263 32.0909ZM33.1433 27.4979L43.3131 28.4251L43.4039 27.4292L33.2341 26.5021L33.1433 27.4979ZM43.6044 28.3625L45.2459 27.4354L44.7541 26.5646L43.1126 27.4918L43.6044 28.3625ZM35.0378 33.9903H38.7359V32.9903H35.0378V33.9903ZM38.458 33.9059L46.7787 39.4691L47.3345 38.6377L39.0138 33.0746L38.458 33.9059ZM59.151 41.1419L55.9529 44.2584L56.6508 44.9746L59.849 41.8581L59.151 41.1419ZM43.7897 60.0531C43.3645 59.3287 42.6941 58.6536 41.7673 58.0958L41.2517 58.9527C42.0559 59.4366 42.5979 59.9981 42.9273 60.5593L43.7897 60.0531ZM43.1159 60.7434C45.7713 62.2174 48.3389 62.011 49.4545 60.4439C50.0127 59.6599 50.1197 58.6257 49.7325 57.5186C49.3481 56.4197 48.4765 55.2348 47.0482 54.0588L46.4126 54.8308C47.7505 55.9324 48.4832 56.9757 48.7886 57.8488C49.0911 58.7137 48.9735 59.3953 48.6398 59.864C47.9718 60.8023 46.0872 61.249 43.6012 59.8691L43.1159 60.7434ZM46.4126 54.8308C47.9999 56.1377 49.5493 56.85 50.9059 57.0867C52.2557 57.3222 53.451 57.0896 54.2606 56.4493C55.0914 55.7923 55.4396 54.7634 55.1687 53.6161C54.9035 52.4928 54.0571 51.2812 52.5708 50.1187L51.9547 50.9063C53.3371 51.9875 54.0008 53.0213 54.1955 53.8459C54.3845 54.6464 54.1422 55.268 53.6403 55.665C53.1171 56.0788 52.2372 56.3038 51.0777 56.1015C49.9249 55.9004 48.5307 55.2795 47.0482 54.0588L46.4126 54.8308ZM52.5788 50.125L47.0464 45.6125L46.4144 46.3875L51.9468 50.9L52.5788 50.125ZM51.9993 50.9374C53.8494 52.0846 55.4491 52.554 56.6496 52.4134C57.2598 52.3419 57.7851 52.1092 58.1634 51.7071C58.5428 51.3038 58.7334 50.7736 58.7519 50.1841C58.7882 49.0279 58.1708 47.5977 56.9254 46.1027C55.6685 44.5939 53.7286 42.9647 51.0036 41.4013L50.5059 42.2686C53.1535 43.7877 54.9931 45.3454 56.1571 46.7428C57.3327 48.154 57.7776 49.3493 57.7524 50.1527C57.7402 50.5431 57.6191 50.8263 57.4351 51.0219C57.25 51.2186 56.9604 51.3701 56.5332 51.4202C55.6591 51.5226 54.2948 51.1842 52.5263 50.0876L51.9993 50.9374ZM20.2453 56.6699C20.6675 56.9378 20.6675 56.9378 20.6676 56.9377C20.6676 56.9377 20.6676 56.9376 20.6677 56.9375C20.6678 56.9374 20.6679 56.9371 20.6681 56.9368C20.6685 56.9362 20.6692 56.9352 20.67 56.9339C20.6716 56.9313 20.674 56.9275 20.6773 56.9224C20.6837 56.9122 20.6934 56.897 20.706 56.8771C20.7313 56.8373 20.7687 56.7784 20.817 56.7022C20.9137 56.5498 21.0542 56.3284 21.2296 56.0519C21.5804 55.4991 22.0707 54.7264 22.6287 53.847C23.7447 52.0882 25.1315 49.9026 26.2147 48.1956L25.3703 47.6598C24.2872 49.3669 22.9004 51.5524 21.7844 53.3112C21.2264 54.1906 20.7361 54.9633 20.3853 55.5161C20.2099 55.7926 20.0693 56.014 19.9727 56.1664C19.9243 56.2426 19.8869 56.3015 19.8616 56.3413C19.849 56.3613 19.8394 56.3764 19.8329 56.3866C19.8297 56.3917 19.8272 56.3956 19.8256 56.3981C19.8248 56.3994 19.8242 56.4004 19.8238 56.401C19.8236 56.4014 19.8234 56.4016 19.8233 56.4018C19.8233 56.4019 19.8232 56.4019 19.8232 56.402C19.8232 56.402 19.8231 56.402 20.2453 56.6699ZM26.0634 48.348C27.8193 47.216 29.1738 47.3198 29.9347 47.9687C30.72 48.6383 31.1347 50.0972 30.5355 52.2282L31.4981 52.4989C32.1462 50.1941 31.7977 48.2431 30.5836 47.2077C29.3451 46.1516 27.4638 46.2554 25.5216 47.5075L26.0634 48.348ZM15.6227 50.1796C16.0619 50.4185 16.0619 50.4185 16.0619 50.4186C16.0619 50.4186 16.0619 50.4186 16.0619 50.4186C16.0619 50.4185 16.062 50.4184 16.062 50.4183C16.0622 50.418 16.0624 50.4176 16.0628 50.4169C16.0636 50.4155 16.0647 50.4134 16.0664 50.4104C16.0696 50.4044 16.0747 50.3953 16.0815 50.3831C16.095 50.3586 16.1155 50.3218 16.1428 50.2736C16.1973 50.1771 16.2789 50.035 16.3855 49.8543C16.5989 49.4929 16.9126 48.978 17.3123 48.3672C18.1127 47.1441 19.253 45.5437 20.6175 44.0233L19.8732 43.3554C18.4641 44.9256 17.2931 46.5703 16.4755 47.8197C16.0663 48.4451 15.7444 48.9733 15.5244 49.3459C15.4144 49.5323 15.3297 49.6799 15.2723 49.7814C15.2436 49.8322 15.2217 49.8714 15.2068 49.8983C15.1994 49.9117 15.1937 49.922 15.1898 49.9291C15.1878 49.9327 15.1863 49.9354 15.1853 49.9374C15.1848 49.9383 15.1843 49.9391 15.184 49.9397C15.1839 49.9399 15.1838 49.9402 15.1837 49.9403C15.1836 49.9404 15.1836 49.9405 15.1835 49.9406C15.1835 49.9406 15.1835 49.9407 15.6227 50.1796ZM20.6175 44.0233C21.8173 42.6863 23.6154 42.6793 24.8235 43.4773C25.4219 43.8726 25.8532 44.453 25.9962 45.1441C26.1382 45.83 26.0084 46.6847 25.3741 47.6539L26.2109 48.2015C26.9634 47.0516 27.1802 45.9305 26.9755 44.9414C26.7718 43.9576 26.1631 43.1638 25.3747 42.643C23.8092 41.6088 21.4469 41.6018 19.8732 43.3554L20.6175 44.0233ZM31.2734 52.7927C32.6192 51.9882 33.8205 52.3343 34.5073 53.1108C35.2078 53.9028 35.4192 55.1928 34.6213 56.3931L35.4541 56.9467C36.5052 55.3655 36.2544 53.5768 35.2563 52.4482C34.2444 51.3042 32.5108 50.8879 30.7602 51.9344L31.2734 52.7927ZM26.2114 60.6517L31.4357 52.6366L30.5979 52.0905L25.3736 60.1056L26.2114 60.6517ZM25.4019 60.0666C24.6456 61.0132 23.8637 61.3928 23.1767 61.4538C22.483 61.5154 21.8112 61.2591 21.2673 60.7938C20.1496 59.8377 19.7272 58.1738 20.6429 56.9731L19.8478 56.3667C18.5182 58.1099 19.223 60.361 20.6172 61.5537C21.3291 62.1627 22.2593 62.5392 23.2652 62.4499C24.2779 62.3599 25.2932 61.8047 26.1831 60.6907L25.4019 60.0666ZM25.4019 60.0666C24.644 61.0152 24.3455 61.9902 24.4374 62.8699C24.5293 63.7491 25.0074 64.4805 25.6976 64.9302C27.1034 65.8461 29.2346 65.5421 30.8133 63.4625L30.0168 62.8579C28.6805 64.6181 27.1135 64.6592 26.2435 64.0923C25.7958 63.8006 25.4914 63.3337 25.432 62.7659C25.3727 62.1986 25.5542 61.478 26.1831 60.6907L25.4019 60.0666ZM31.3396 61.8621C31.7332 62.1704 31.7333 62.1704 31.7333 62.1704C31.7333 62.1704 31.7333 62.1704 31.7333 62.1703C31.7334 62.1702 31.7335 62.1701 31.7336 62.17C31.7338 62.1697 31.7342 62.1693 31.7346 62.1687C31.7355 62.1675 31.7369 62.1657 31.7388 62.1634C31.7424 62.1587 31.7478 62.1519 31.7546 62.1431C31.7684 62.1256 31.7883 62.1003 31.8125 62.0694C31.8611 62.0077 31.9271 61.9238 31.9972 61.8352C32.1409 61.6535 32.2914 61.4651 32.3501 61.3966C32.3569 61.3887 32.359 61.3865 32.3579 61.3876C32.3576 61.388 32.3531 61.3929 32.3459 61.3999C32.3422 61.4034 32.3352 61.4101 32.3257 61.4182C32.3188 61.4242 32.2978 61.442 32.2679 61.4609C32.2531 61.4702 32.2239 61.4876 32.184 61.5031C32.1526 61.5154 32.063 61.5476 31.9452 61.5339C31.7929 61.5163 31.6422 61.4262 31.56 61.2694C31.4966 61.1485 31.5015 61.0382 31.5044 60.9997C31.5107 60.917 31.5371 60.8564 31.5401 60.8491C31.5483 60.8292 31.5559 60.8145 31.5593 60.8081C31.5704 60.7871 31.5792 60.7749 31.5726 60.7847C31.555 60.8111 31.501 60.8866 31.3874 61.04C31.1661 61.339 30.7456 61.8979 30.0168 62.8579L30.8133 63.4625C31.5421 62.5026 31.9659 61.9393 32.1912 61.6349C32.301 61.4866 32.3708 61.3902 32.4047 61.3394C32.411 61.33 32.4281 61.3043 32.4434 61.2754C32.4478 61.267 32.4562 61.2506 32.4649 61.2294C32.4685 61.2208 32.4951 61.1592 32.5015 61.0759C32.5045 61.037 32.5093 60.9265 32.4458 60.8053C32.3636 60.6483 32.2127 60.5582 32.0602 60.5405C31.9421 60.5269 31.8523 60.5591 31.8205 60.5715C31.7804 60.5872 31.7507 60.6048 31.7355 60.6143C31.6855 60.6458 31.6509 60.6809 31.6494 60.6823C31.6386 60.6928 31.6296 60.7023 31.6241 60.7083C31.6124 60.7209 31.6007 60.7343 31.5909 60.7458C31.5163 60.8328 31.3513 61.0399 31.213 61.2147C31.142 61.3044 31.0753 61.3892 31.0263 61.4514C31.0019 61.4826 30.9818 61.5081 30.9678 61.5259C30.9609 61.5348 30.9554 61.5418 30.9517 61.5465C30.9498 61.5489 30.9484 61.5507 30.9474 61.552C30.9469 61.5526 30.9466 61.553 30.9463 61.5534C30.9462 61.5535 30.9461 61.5536 30.946 61.5537C30.946 61.5538 30.946 61.5538 30.946 61.5538C30.946 61.5538 30.9459 61.5538 31.3396 61.8621ZM30.9204 61.5896C30.0459 62.935 29.6947 64.1609 29.7641 65.2008C29.8342 66.2508 30.3333 67.0775 31.08 67.5783C32.57 68.5775 34.8448 68.1887 36.3566 66.2491L35.5679 65.6344C34.3062 67.2531 32.5998 67.3934 31.637 66.7477C31.1572 66.426 30.8121 65.8867 30.7619 65.1342C30.711 64.3715 30.9635 63.3582 31.7588 62.1346L30.9204 61.5896ZM34.6304 56.3798L33.7059 57.6779L34.5204 58.258L35.445 56.96L34.6304 56.3798ZM33.7059 57.6779L30.9323 61.5721L31.7469 62.1522L34.5204 58.258L33.7059 57.6779ZM34.317 58.4245C35.1773 58.0405 35.8635 57.9545 36.3944 58.0303C36.9203 58.1055 37.3271 58.3437 37.6319 58.6708C38.2615 59.3465 38.4608 60.4116 38.2533 61.1747L39.2183 61.437C39.5097 60.3649 39.246 58.9362 38.3636 57.9891C37.9124 57.5049 37.3011 57.1497 36.5358 57.0404C35.7754 56.9318 34.8973 57.0704 33.9094 57.5114L34.317 58.4245ZM36.3566 66.2491C36.7315 65.7682 37.0755 65.3775 37.3968 64.996C37.7123 64.6216 38.0067 64.2552 38.2419 63.8566L37.3807 63.3484C37.191 63.6697 36.9436 63.9819 36.6321 64.3517C36.3265 64.7145 35.9583 65.1334 35.5679 65.6344L36.3566 66.2491ZM38.2419 63.8566C38.6802 63.1139 38.9656 62.3664 39.2183 61.437L38.2533 61.1747C38.0165 62.0459 37.7608 62.7042 37.3807 63.3484L38.2419 63.8566ZM37.511 64.0022C38.8438 65.0034 40.0721 65.6162 41.1352 65.8773C42.1926 66.1371 43.1424 66.0598 43.8419 65.5916C44.5582 65.1122 44.9002 64.2992 44.8836 63.3409C44.8671 62.393 44.505 61.2718 43.7897 60.0531L42.9273 60.5593C43.5895 61.6875 43.8713 62.639 43.8837 63.3582C43.896 64.067 43.6519 64.5154 43.2857 64.7606C42.9026 65.0169 42.2733 65.1272 41.3737 64.9062C40.4798 64.6866 39.3731 64.1503 38.1116 63.2027L37.511 64.0022ZM19.8478 56.3667C18.6156 57.9822 16.6356 58.1294 15.4935 57.1965C14.3972 56.301 13.787 54.1221 15.9936 50.5305L15.1415 50.007C12.8325 53.7654 13.18 56.598 14.8609 57.971C16.496 59.3066 19.1127 58.9794 20.6429 56.9731L19.8478 56.3667ZM15.9936 50.5305C16.0112 50.5018 16.029 50.473 16.047 50.4441L15.1984 49.9152C15.1792 49.9458 15.1603 49.9765 15.1415 50.007L15.9936 50.5305ZM15.7718 49.8124L10.7043 47.5436L10.2957 48.4564L15.3632 50.7251L15.7718 49.8124ZM47.0593 54.0682L43.6874 51.1234L43.0296 51.8766L46.4015 54.8214L47.0593 54.0682Z" fill="#808181"/>
<path d="M2.18665 21.5917C1.93047 21.4886 1.63923 21.6127 1.53614 21.8689C1.43306 22.1251 1.55717 22.4163 1.81335 22.5194L2.18665 21.5917ZM17.7857 28.4074L18.251 28.5905C18.3516 28.3349 18.2272 28.0461 17.9724 27.9436L17.7857 28.4074ZM8.5 52L8.36554 52.4816C8.6124 52.5505 8.87139 52.4216 8.96526 52.1831L8.5 52ZM2.13446 49.7036C1.86849 49.6293 1.59268 49.7848 1.51842 50.0507C1.44416 50.3167 1.59957 50.5925 1.86554 50.6668L2.13446 49.7036ZM67.3349 3.37127C67.5399 3.18631 67.5562 2.87015 67.3713 2.6651C67.1863 2.46005 66.8701 2.44377 66.6651 2.62873L67.3349 3.37127ZM42.8571 24.7778L42.5222 24.4065C42.4197 24.499 42.36 24.6297 42.3572 24.7678C42.3545 24.9058 42.4089 25.0389 42.5077 25.1354L42.8571 24.7778ZM62.3571 43.8333L62.0077 44.1909C62.202 44.3808 62.5123 44.3808 62.7066 44.1909L62.3571 43.8333ZM67.3494 39.6539C67.547 39.4609 67.5506 39.1443 67.3576 38.9468C67.1646 38.7493 66.848 38.7457 66.6505 38.9387L67.3494 39.6539ZM10.2857 47.463L9.82045 47.2798L10.2857 47.463ZM1.81335 22.5194L17.5991 28.8713L17.9724 27.9436L2.18665 21.5917L1.81335 22.5194ZM8.63446 51.5184L2.13446 49.7036L1.86554 50.6668L8.36554 52.4816L8.63446 51.5184ZM66.6651 2.62873L42.5222 24.4065L43.192 25.149L67.3349 3.37127L66.6651 2.62873ZM62.7066 44.1909L67.3494 39.6539L66.6505 38.9387L62.0077 43.4757L62.7066 44.1909ZM9.82045 47.2798L8.03474 51.8169L8.96526 52.1831L10.751 47.6461L9.82045 47.2798ZM10.751 47.6461L18.251 28.5905L17.3205 28.2243L9.82045 47.2798L10.751 47.6461ZM42.5077 25.1354L62.0077 44.1909L62.7066 43.4757L43.2066 24.4202L42.5077 25.1354Z" fill="#C47A2C"/>
</svg>
