<svg width="40" height="40" viewBox="0 0 40 40" fill="none" xmlns="http://www.w3.org/2000/svg">
<path d="M4.15186 32.8481C4.15186 33.1761 4.42386 33.4481 4.75186 33.4481H9.50386C9.83186 33.4481 10.1039 33.1761 10.1039 32.8481V28.0961C10.1039 27.7681 9.83186 27.4961 9.50386 27.4961H4.75186C4.42386 27.4961 4.15186 27.7681 4.15186 28.0961V32.8481ZM5.35186 28.6961H8.90386V32.2481H5.35186V28.6961Z" fill="#808181"/>
<path d="M23.6399 28.7921C23.6399 28.4641 23.3679 28.1921 23.0399 28.1921H12.2719C11.9439 28.1921 11.6719 28.4641 11.6719 28.7921C11.6719 29.1201 11.9439 29.3921 12.2719 29.3921H23.0399C23.3759 29.3921 23.6399 29.1201 23.6399 28.7921Z" fill="#808181"/>
<path d="M12.2719 30.864C11.9439 30.864 11.6719 31.136 11.6719 31.464C11.6719 31.792 11.9439 32.064 12.2719 32.064H16.9119C17.2399 32.064 17.5119 31.792 17.5119 31.464C17.5119 31.136 17.2399 30.864 16.9119 30.864H12.2719Z" fill="#808181"/>
<path d="M26.4479 35.7679C26.7793 35.7679 27.0479 35.4992 27.0479 35.1679C27.0479 34.8365 26.7793 34.5679 26.4479 34.5679C26.1165 34.5679 25.8479 34.8365 25.8479 35.1679C25.8479 35.4992 26.1165 35.7679 26.4479 35.7679Z" fill="#808181"/>
<path d="M26.4479 4.48H21.0479L20.7759 2.968C20.7199 2.688 20.4719 2.472 20.1839 2.472H16.3919C16.1279 1.544 15.2639 0.895996 14.2959 0.895996C13.3199 0.895996 12.4639 1.544 12.1999 2.472H8.40794C8.11194 2.472 7.86395 2.688 7.81595 2.968L7.54395 4.48H2.14395C1.98395 4.48 1.83195 4.544 1.71995 4.656C1.60795 4.768 1.54395 4.92 1.54395 5.08V38.296C1.54395 38.456 1.60795 38.608 1.71995 38.72C1.83195 38.832 1.98395 38.896 2.14395 38.896H26.4479C26.6079 38.896 26.7599 38.832 26.8719 38.72C26.9839 38.608 27.0479 38.456 27.0479 38.296V36.768C27.0479 36.44 26.7759 36.168 26.4479 36.168C26.1119 36.168 25.8479 36.44 25.8479 36.768V37.696H2.74395V5.68H7.33595L7.19195 6.472C7.15995 6.648 7.20794 6.824 7.32794 6.96C7.43994 7.096 7.60794 7.176 7.78394 7.176H20.8079C20.9839 7.176 21.1519 7.096 21.2639 6.96C21.3759 6.824 21.4239 6.648 21.3999 6.472L21.2559 5.68H25.8479V33.568C25.8479 33.904 26.1119 34.168 26.4479 34.168C26.7759 34.168 27.0479 33.904 27.0479 33.568V5.08C27.0479 4.92 26.9839 4.768 26.8719 4.656C26.7519 4.544 26.6079 4.48 26.4479 4.48ZM8.49594 5.976L8.91194 3.672H12.7119C12.8799 3.672 13.0239 3.616 13.1359 3.496C13.2559 3.384 13.3119 3.24 13.3119 3.072C13.3119 2.536 13.7519 2.096 14.2959 2.096C14.8319 2.096 15.2719 2.536 15.2719 3.072C15.2719 3.232 15.3359 3.392 15.4479 3.496C15.5599 3.608 15.7119 3.672 15.8719 3.672H19.6799L20.0879 5.976H8.49594Z" fill="#808181"/>
<path d="M4.75186 17.0001H9.49586C9.65586 17.0001 9.80785 16.9361 9.91985 16.8241C10.0319 16.7121 10.0959 16.5601 10.0959 16.4001V11.6481C10.0959 11.4881 10.0319 11.3361 9.91985 11.2241C9.80785 11.1121 9.65586 11.0481 9.49586 11.0481H4.75186C4.59186 11.0481 4.43986 11.1121 4.32786 11.2241C4.21586 11.3361 4.15186 11.4881 4.15186 11.6481V16.4001C4.15186 16.5521 4.21586 16.7121 4.32786 16.8241C4.43986 16.9361 4.59186 17.0001 4.75186 17.0001ZM5.34386 12.2481H8.89586V15.8001H5.34386V12.2481Z" fill="#808181"/>
<path d="M12.2719 12.9439H23.0399C23.3759 12.9439 23.6399 12.6719 23.6399 12.3439C23.6399 12.0079 23.3759 11.7439 23.0399 11.7439H12.2719C11.9439 11.7439 11.6719 12.0079 11.6719 12.3439C11.6719 12.6719 11.9439 12.9439 12.2719 12.9439Z" fill="#808181"/>
<path d="M12.2719 15.616H16.9199C17.2479 15.616 17.5199 15.344 17.5199 15.016C17.5199 14.68 17.2479 14.416 16.9199 14.416H12.2719C11.9439 14.416 11.6719 14.68 11.6719 15.016C11.6719 15.344 11.9439 15.616 12.2719 15.616Z" fill="#808181"/>
<path d="M4.15186 24.624C4.15186 24.784 4.21586 24.936 4.32786 25.048C4.43186 25.16 4.59186 25.224 4.75186 25.224H9.49586C9.65586 25.224 9.80785 25.16 9.91985 25.048C10.0319 24.936 10.0959 24.784 10.0959 24.624V19.872C10.0959 19.712 10.0319 19.56 9.91985 19.448C9.80785 19.336 9.65586 19.272 9.49586 19.272H4.75186C4.59186 19.272 4.43186 19.336 4.32786 19.448C4.21586 19.56 4.15186 19.712 4.15186 19.872V24.624ZM5.34386 20.472H8.89586V24.024H5.34386V20.472Z" fill="#808181"/>
<path d="M12.2719 21.168H23.0399C23.3759 21.168 23.6399 20.896 23.6399 20.568C23.6399 20.232 23.3759 19.968 23.0399 19.968H12.2719C11.9439 19.968 11.6719 20.232 11.6719 20.568C11.6719 20.896 11.9439 21.168 12.2719 21.168Z" fill="#808181"/>
<path d="M12.2719 23.8399H16.9199C17.2479 23.8399 17.5199 23.5679 17.5199 23.2399C17.5199 22.9039 17.2479 22.6399 16.9199 22.6399H12.2719C11.9439 22.6399 11.6719 22.9039 11.6719 23.2399C11.6719 23.5679 11.9439 23.8399 12.2719 23.8399Z" fill="#808181"/>
<path d="M35.5119 25.4959C35.8432 25.4959 36.1119 25.2273 36.1119 24.8959C36.1119 24.5645 35.8432 24.2959 35.5119 24.2959C35.1805 24.2959 34.9119 24.5645 34.9119 24.8959C34.9119 25.2273 35.1805 25.4959 35.5119 25.4959Z" fill="#C47A2C"/>
<path d="M38.7759 10.2239C38.6639 10.1119 38.5119 10.0479 38.3519 10.0479H36.1119V8.30389C36.1119 6.58389 34.7199 5.19189 32.9999 5.19189C31.2879 5.19189 29.8879 6.58389 29.8879 8.30389V28.9839L29.8959 29.0239C29.9039 29.0959 29.9199 29.1679 29.9439 29.2319V29.2479L32.4559 34.2799C32.5599 34.4879 32.7679 34.6079 32.9919 34.6079C33.2239 34.6079 33.4319 34.4879 33.5279 34.2799L36.0479 29.2399V29.2239C36.0799 29.1519 36.1039 29.0719 36.1039 28.9839V26.5039C36.1039 26.1679 35.8399 25.9039 35.5039 25.9039C35.1759 25.9039 34.9039 26.1679 34.9039 26.5039V28.3839H31.0799V11.2479H34.9039V23.2959C34.9039 23.6239 35.1759 23.8959 35.5039 23.8959C35.8399 23.8959 36.1039 23.6239 36.1039 23.2959V11.2479H37.7439V20.4399C37.7439 20.7759 38.0159 21.0399 38.3439 21.0399C38.6719 21.0399 38.9439 20.7759 38.9439 20.4399V10.6479C38.9519 10.4879 38.8879 10.3359 38.7759 10.2239ZM32.9999 32.6639L31.4559 29.5759H34.5359L32.9999 32.6639ZM31.0879 10.0479V8.30389C31.0959 7.24789 31.9519 6.39189 32.9999 6.39189C34.0559 6.39189 34.9119 7.24789 34.9119 8.30389V10.0479H31.0879Z" fill="#C47A2C"/>
</svg>
