<svg width="40" height="40" viewBox="0 0 40 40" fill="none" xmlns="http://www.w3.org/2000/svg">
<path d="M25.2304 35.4958C20.1425 35.4958 15.9824 31.3357 15.9824 26.2478C15.9824 21.1598 20.1425 16.9998 25.2304 16.9998C30.3184 16.9998 34.4784 21.1598 34.4784 26.2478C34.4784 31.3359 30.3184 35.4958 25.2304 35.4958V35.4958ZM25.2304 18.1518C20.7505 18.1518 17.1344 21.7998 17.1344 26.2478C17.1344 30.7276 20.7824 34.3438 25.2304 34.3438C29.7103 34.3438 33.3264 30.6958 33.3264 26.2478C33.3264 21.7679 29.7106 18.1518 25.2304 18.1518Z" fill="#C47A2C"/>
<path d="M25.3263 21.5117C23.5662 21.5117 22.1582 22.9198 22.1582 24.6798C22.1582 24.9677 22.3823 25.1918 22.6703 25.1918C22.9582 25.1918 23.1823 24.9677 23.1823 24.6798C23.1823 23.4958 24.1424 22.5358 25.3263 22.5358C26.5102 22.5358 27.4703 23.4958 27.4703 24.6798C27.4703 25.8637 26.5102 26.8238 25.3263 26.8238C25.0384 26.8238 24.8143 27.0479 24.8143 27.3358V28.8718C24.8143 29.1597 25.0384 29.3838 25.3263 29.3838C25.6143 29.3838 25.8384 29.1597 25.8384 28.8718V27.7838C27.3424 27.5278 28.4944 26.2158 28.4944 24.6479C28.5263 22.9198 27.0863 21.5117 25.3263 21.5117L25.3263 21.5117Z" fill="#C47A2C"/>
<path d="M26.0624 30.9837C26.0624 31.3902 25.7328 31.7197 25.3263 31.7197C24.9198 31.7197 24.5903 31.3902 24.5903 30.9837C24.5903 30.5773 24.9198 30.2476 25.3263 30.2476C25.7328 30.2476 26.0624 30.5772 26.0624 30.9837Z" fill="#C47A2C"/>
<path d="M17.1344 35.4957H5.67837C5.35828 35.4957 5.07031 35.2078 5.07031 34.8877V4.55166C5.07031 4.23157 5.35826 3.9436 5.67837 3.9436L24.9104 3.94383C25.0704 3.94383 25.2305 4.00789 25.3264 4.10387L30.8945 9.54382C31.0224 9.67172 31.0865 9.79984 31.0865 9.9918V15.5599C31.0865 15.88 30.7985 16.1679 30.4784 16.1679C30.1583 16.1679 29.8703 15.88 29.8703 15.5599L29.8701 10.2476L24.6543 5.15963H6.28629V34.2796H17.1343C17.4544 34.2796 17.7424 34.5676 17.7424 34.8877C17.7424 35.2076 17.4863 35.4955 17.1343 35.4955L17.1344 35.4957Z" fill="#808181"/>
<path d="M9.87026 14.3438H22.7023C23.0862 14.3438 23.4063 14.0237 23.4063 13.6398C23.4063 13.2559 23.0862 12.9358 22.7023 12.9358H9.87026C9.48633 12.9358 9.16626 13.2559 9.16626 13.6398C9.16626 14.0237 9.48635 14.3438 9.87026 14.3438V14.3438Z" fill="#808181"/>
<path d="M9.93447 10.4717H22.7665C23.1504 10.4717 23.4705 10.1516 23.4705 9.76772C23.4705 9.38381 23.1504 9.06372 22.7665 9.06372H9.93447C9.55054 9.06372 9.23047 9.38381 9.23047 9.76772C9.23047 10.1516 9.55056 10.4717 9.93447 10.4717V10.4717Z" fill="#808181"/>
<path d="M9.93447 18.3118H17.4545C17.8384 18.3118 18.1585 17.9917 18.1585 17.6078C18.1585 17.2239 17.8384 16.9038 17.4545 16.9038H9.93447C9.55054 16.9038 9.23047 17.2239 9.23047 17.6078C9.23047 17.992 9.55056 18.3118 9.93447 18.3118Z" fill="#808181"/>
<path d="M14.6065 22.4078H9.90249C9.51856 22.4078 9.19849 22.0877 9.19849 21.7038C9.19849 21.3198 9.51858 20.9998 9.90249 20.9998H14.6065C14.9904 20.9998 15.3105 21.3198 15.3105 21.7038C15.3105 22.0879 14.9904 22.4078 14.6065 22.4078Z" fill="#808181"/>
</svg>
