<svg width="230" height="70" viewBox="0 0 230 70" fill="none" xmlns="http://www.w3.org/2000/svg">
<rect width="230" height="70" rx="10" fill="#333333"/>
<path d="M64.3026 51H61.4901L66.6108 36.4545H69.8636L74.9915 51H72.179L68.294 39.4375H68.1804L64.3026 51ZM64.3949 45.2969H72.0653V47.4134H64.3949V45.2969ZM76.7937 55.0909V40.0909H79.3221V41.8949H79.4712C79.6038 41.6297 79.7908 41.348 80.0323 41.0497C80.2738 40.7467 80.6005 40.4886 81.0124 40.2756C81.4244 40.0578 81.9499 39.9489 82.5891 39.9489C83.4319 39.9489 84.1919 40.1643 84.869 40.5952C85.5508 41.0213 86.0906 41.6534 86.4883 42.4915C86.8907 43.3248 87.092 44.3475 87.092 45.5597C87.092 46.7576 86.8955 47.7756 86.5025 48.6136C86.1095 49.4517 85.5745 50.0909 84.8974 50.5312C84.2203 50.9716 83.4532 51.1918 82.5962 51.1918C81.9712 51.1918 81.4528 51.0876 81.0408 50.8793C80.6289 50.6709 80.2975 50.42 80.0465 50.1264C79.8003 49.8281 79.6085 49.5464 79.4712 49.2812H79.3647V55.0909H76.7937ZM79.315 45.5455C79.315 46.2509 79.4144 46.8688 79.6133 47.3991C79.8169 47.9295 80.1081 48.3437 80.4869 48.642C80.8704 48.9356 81.3344 49.0824 81.8789 49.0824C82.4471 49.0824 82.9229 48.9309 83.3065 48.6278C83.69 48.3201 83.9788 47.901 84.1729 47.3707C84.3718 46.8357 84.4712 46.2273 84.4712 45.5455C84.4712 44.8684 84.3742 44.267 84.18 43.7415C83.9859 43.2159 83.6971 42.804 83.3136 42.5057C82.93 42.2074 82.4518 42.0582 81.8789 42.0582C81.3297 42.0582 80.8633 42.2027 80.4798 42.4915C80.0962 42.7803 79.805 43.1851 79.6062 43.706C79.4121 44.2268 79.315 44.84 79.315 45.5455ZM89.2937 55.0909V40.0909H91.8221V41.8949H91.9712C92.1038 41.6297 92.2908 41.348 92.5323 41.0497C92.7738 40.7467 93.1005 40.4886 93.5124 40.2756C93.9244 40.0578 94.4499 39.9489 95.0891 39.9489C95.9319 39.9489 96.6919 40.1643 97.369 40.5952C98.0508 41.0213 98.5906 41.6534 98.9883 42.4915C99.3907 43.3248 99.592 44.3475 99.592 45.5597C99.592 46.7576 99.3955 47.7756 99.0025 48.6136C98.6095 49.4517 98.0745 50.0909 97.3974 50.5312C96.7203 50.9716 95.9532 51.1918 95.0962 51.1918C94.4712 51.1918 93.9528 51.0876 93.5408 50.8793C93.1289 50.6709 92.7975 50.42 92.5465 50.1264C92.3003 49.8281 92.1085 49.5464 91.9712 49.2812H91.8647V55.0909H89.2937ZM91.815 45.5455C91.815 46.2509 91.9144 46.8688 92.1133 47.3991C92.3169 47.9295 92.6081 48.3437 92.9869 48.642C93.3704 48.9356 93.8344 49.0824 94.3789 49.0824C94.9471 49.0824 95.4229 48.9309 95.8065 48.6278C96.19 48.3201 96.4788 47.901 96.6729 47.3707C96.8718 46.8357 96.9712 46.2273 96.9712 45.5455C96.9712 44.8684 96.8742 44.267 96.68 43.7415C96.4859 43.2159 96.1971 42.804 95.8136 42.5057C95.43 42.2074 94.9518 42.0582 94.3789 42.0582C93.8297 42.0582 93.3633 42.2027 92.9798 42.4915C92.5962 42.7803 92.305 43.1851 92.1062 43.706C91.9121 44.2268 91.815 44.84 91.815 45.5455ZM114.773 40.4531C114.707 39.8329 114.427 39.3499 113.935 39.0043C113.447 38.6586 112.813 38.4858 112.032 38.4858C111.482 38.4858 111.011 38.5687 110.618 38.7344C110.225 38.9001 109.925 39.125 109.716 39.4091C109.508 39.6932 109.401 40.0175 109.397 40.3821C109.397 40.6851 109.465 40.9479 109.603 41.1705C109.745 41.393 109.936 41.5824 110.178 41.7386C110.419 41.8902 110.687 42.018 110.98 42.1222C111.274 42.2263 111.57 42.3139 111.868 42.3849L113.232 42.7259C113.781 42.8537 114.309 43.0265 114.816 43.2443C115.327 43.4621 115.784 43.7367 116.186 44.0682C116.594 44.3996 116.916 44.7997 117.152 45.2685C117.389 45.7372 117.507 46.2865 117.507 46.9162C117.507 47.7685 117.29 48.5189 116.854 49.1676C116.418 49.8116 115.789 50.3158 114.965 50.6804C114.146 51.0402 113.154 51.2202 111.989 51.2202C110.857 51.2202 109.875 51.045 109.042 50.6946C108.213 50.3442 107.564 49.8329 107.096 49.1605C106.632 48.4882 106.381 47.669 106.343 46.7031H108.935C108.973 47.2098 109.129 47.6312 109.404 47.9673C109.678 48.3035 110.036 48.5545 110.476 48.7202C110.921 48.8859 111.418 48.9688 111.968 48.9688C112.541 48.9688 113.042 48.8835 113.473 48.7131C113.909 48.5379 114.25 48.2964 114.496 47.9886C114.742 47.6761 114.868 47.3116 114.873 46.8949C114.868 46.5161 114.757 46.2036 114.539 45.9574C114.321 45.7064 114.016 45.4981 113.623 45.3324C113.234 45.1619 112.78 45.0104 112.259 44.8778L110.604 44.4517C109.406 44.1439 108.459 43.6776 107.763 43.0526C107.072 42.4228 106.726 41.5871 106.726 40.5455C106.726 39.6884 106.958 38.938 107.422 38.294C107.891 37.6501 108.528 37.1506 109.333 36.7955C110.138 36.4356 111.049 36.2557 112.067 36.2557C113.099 36.2557 114.004 36.4356 114.78 36.7955C115.561 37.1506 116.175 37.6454 116.62 38.2798C117.065 38.9096 117.294 39.634 117.309 40.4531H114.773ZM125.19 40.0909V42.0795H118.919V40.0909H125.19ZM120.467 37.4773H123.038V47.7188C123.038 48.0644 123.09 48.3295 123.195 48.5142C123.304 48.6941 123.446 48.8172 123.621 48.8835C123.796 48.9498 123.99 48.983 124.203 48.983C124.364 48.983 124.511 48.9711 124.643 48.9474C124.781 48.9238 124.885 48.9025 124.956 48.8835L125.389 50.8935C125.252 50.9408 125.055 50.9929 124.8 51.0497C124.549 51.1065 124.241 51.1397 123.876 51.1491C123.232 51.1681 122.652 51.071 122.136 50.858C121.62 50.6402 121.211 50.304 120.908 49.8494C120.609 49.3949 120.463 48.8267 120.467 48.1449V37.4773ZM131.982 51.2131C130.917 51.2131 129.993 50.9787 129.212 50.5099C128.431 50.0412 127.825 49.3854 127.394 48.5426C126.968 47.6998 126.755 46.715 126.755 45.5881C126.755 44.4612 126.968 43.474 127.394 42.6264C127.825 41.7789 128.431 41.1207 129.212 40.652C129.993 40.1832 130.917 39.9489 131.982 39.9489C133.047 39.9489 133.971 40.1832 134.752 40.652C135.533 41.1207 136.137 41.7789 136.563 42.6264C136.994 43.474 137.209 44.4612 137.209 45.5881C137.209 46.715 136.994 47.6998 136.563 48.5426C136.137 49.3854 135.533 50.0412 134.752 50.5099C133.971 50.9787 133.047 51.2131 131.982 51.2131ZM131.996 49.1534C132.574 49.1534 133.057 48.9948 133.445 48.6776C133.833 48.3556 134.122 47.9247 134.311 47.3849C134.506 46.8452 134.603 46.2438 134.603 45.581C134.603 44.9134 134.506 44.3097 134.311 43.7699C134.122 43.2254 133.833 42.7921 133.445 42.4702C133.057 42.1482 132.574 41.9872 131.996 41.9872C131.404 41.9872 130.912 42.1482 130.519 42.4702C130.131 42.7921 129.839 43.2254 129.645 43.7699C129.456 44.3097 129.361 44.9134 129.361 45.581C129.361 46.2438 129.456 46.8452 129.645 47.3849C129.839 47.9247 130.131 48.3556 130.519 48.6776C130.912 48.9948 131.404 49.1534 131.996 49.1534ZM139.391 51V40.0909H141.884V41.9091H141.998C142.197 41.2794 142.538 40.794 143.021 40.4531C143.508 40.1075 144.065 39.9347 144.69 39.9347C144.832 39.9347 144.99 39.9418 145.165 39.956C145.345 39.9654 145.495 39.982 145.613 40.0057V42.3707C145.504 42.3329 145.331 42.2997 145.094 42.2713C144.862 42.2382 144.638 42.2216 144.42 42.2216C143.951 42.2216 143.53 42.3234 143.156 42.527C142.786 42.7259 142.495 43.0028 142.282 43.358C142.069 43.7131 141.962 44.1226 141.962 44.5866V51H139.391ZM151.701 51.2131C150.608 51.2131 149.663 50.9858 148.868 50.5312C148.077 50.072 147.468 49.4233 147.042 48.5852C146.616 47.7424 146.403 46.7505 146.403 45.6094C146.403 44.4872 146.616 43.5024 147.042 42.6548C147.473 41.8026 148.074 41.1397 148.846 40.6662C149.618 40.188 150.525 39.9489 151.566 39.9489C152.239 39.9489 152.873 40.0578 153.47 40.2756C154.071 40.4886 154.601 40.8201 155.061 41.2699C155.525 41.7197 155.889 42.2926 156.154 42.9886C156.42 43.6799 156.552 44.5038 156.552 45.4602V46.2486H147.61V44.5156H154.088C154.083 44.0232 153.976 43.5852 153.768 43.2017C153.56 42.8134 153.269 42.508 152.895 42.2855C152.525 42.063 152.094 41.9517 151.602 41.9517C151.076 41.9517 150.615 42.0795 150.217 42.3352C149.819 42.5862 149.509 42.9176 149.287 43.3295C149.069 43.7367 148.958 44.1842 148.953 44.6719V46.1847C148.953 46.8191 149.069 47.3636 149.301 47.8182C149.533 48.268 149.857 48.6136 150.274 48.8551C150.69 49.0919 151.178 49.2102 151.737 49.2102C152.111 49.2102 152.449 49.1581 152.752 49.054C153.056 48.9451 153.318 48.7865 153.541 48.5781C153.763 48.3698 153.931 48.1117 154.045 47.804L156.446 48.0739C156.294 48.7083 156.005 49.2623 155.579 49.7358C155.158 50.2045 154.618 50.5691 153.96 50.8295C153.302 51.0852 152.549 51.2131 151.701 51.2131Z" fill="white"/>
<path d="M65.4396 29.1392C64.8132 29.1392 64.2531 29.0265 63.7592 28.8011C63.2654 28.5724 62.8743 28.2559 62.5859 27.8516C62.2976 27.4472 62.1451 26.9815 62.1286 26.4545H63.0682C63.0848 26.8258 63.1991 27.1506 63.4112 27.429C63.6233 27.7041 63.9051 27.9195 64.2564 28.0753C64.6077 28.2277 64.9988 28.304 65.4297 28.304C65.9003 28.304 66.3146 28.2161 66.6726 28.0405C67.0339 27.8648 67.3156 27.6245 67.5178 27.3196C67.7232 27.0114 67.826 26.6634 67.826 26.2756C67.826 25.8646 67.7216 25.5017 67.5128 25.1868C67.304 24.8719 67.004 24.6267 66.6129 24.451C66.2251 24.2753 65.7611 24.1875 65.2209 24.1875H64.6243V23.3523H65.2209C65.6617 23.3523 66.0511 23.2727 66.3892 23.1136C66.7306 22.9512 66.9991 22.7242 67.1946 22.4325C67.3902 22.1409 67.4879 21.7978 67.4879 21.4034C67.4879 21.0289 67.4034 20.6991 67.2344 20.4141C67.0653 20.129 66.8267 19.9053 66.5185 19.7429C66.2135 19.5805 65.8572 19.4993 65.4496 19.4993C65.0552 19.4993 64.6939 19.5755 64.3658 19.728C64.0376 19.8804 63.7725 20.0959 63.5703 20.3743C63.3714 20.6527 63.2654 20.9825 63.2521 21.3636H62.3523C62.3655 20.8333 62.5114 20.3677 62.7898 19.9666C63.0715 19.5623 63.4444 19.2474 63.9084 19.022C64.3757 18.7933 64.8928 18.679 65.4595 18.679C66.0594 18.679 66.5781 18.8016 67.0156 19.0469C67.4531 19.2921 67.7912 19.6186 68.0298 20.0263C68.2718 20.4306 68.3928 20.8764 68.3928 21.3636C68.3928 21.9437 68.2353 22.4408 67.9205 22.8551C67.6056 23.2661 67.1813 23.5511 66.6477 23.7102V23.7749C67.2973 23.9041 67.8078 24.1925 68.179 24.6399C68.5535 25.084 68.7408 25.6293 68.7408 26.2756C68.7408 26.8191 68.5982 27.308 68.3132 27.7422C68.0282 28.1731 67.6371 28.5144 67.1399 28.7663C66.6461 29.0149 66.0793 29.1392 65.4396 29.1392ZM73.1058 29.174C72.6451 29.174 72.2242 29.0845 71.843 28.9055C71.4619 28.7232 71.1586 28.4614 70.9332 28.12C70.7079 27.7753 70.5952 27.3577 70.5952 26.8672C70.5952 26.4893 70.6664 26.1712 70.8089 25.9126C70.9515 25.6541 71.1536 25.442 71.4155 25.2763C71.6773 25.1106 71.9872 24.9796 72.3452 24.8835C72.7031 24.7874 73.0975 24.7128 73.5284 24.6598C73.956 24.6068 74.3172 24.5604 74.6122 24.5206C74.9105 24.4808 75.1375 24.4179 75.2933 24.3317C75.4491 24.2455 75.527 24.1063 75.527 23.9141V23.7351C75.527 23.2147 75.3712 22.8054 75.0597 22.5071C74.7514 22.2055 74.3073 22.0547 73.7273 22.0547C73.1771 22.0547 72.728 22.1757 72.38 22.4176C72.0353 22.6596 71.7933 22.9446 71.6541 23.2727L70.8139 22.9695C70.9863 22.5518 71.2249 22.2187 71.5298 21.9702C71.8348 21.7183 72.1761 21.5376 72.554 21.4283C72.9318 21.3156 73.3146 21.2592 73.7024 21.2592C73.9941 21.2592 74.2973 21.2973 74.6122 21.3736C74.9304 21.4498 75.2254 21.5824 75.4972 21.7713C75.7689 21.9569 75.9893 22.2171 76.1584 22.5518C76.3274 22.8833 76.4119 23.3042 76.4119 23.8146V29H75.527V27.7919H75.4723C75.3662 28.0173 75.2088 28.236 75 28.4482C74.7912 28.6603 74.5294 28.8343 74.2145 28.9702C73.8996 29.1061 73.5301 29.174 73.1058 29.174ZM73.2251 28.3636C73.6958 28.3636 74.1035 28.2592 74.4482 28.0504C74.7929 27.8416 75.058 27.5649 75.2436 27.2202C75.4325 26.8722 75.527 26.4893 75.527 26.0717V24.968C75.4607 25.031 75.3497 25.0874 75.1939 25.1371C75.0414 25.1868 74.8641 25.2315 74.6619 25.2713C74.4631 25.3078 74.2642 25.3393 74.0653 25.3658C73.8665 25.3923 73.6875 25.4155 73.5284 25.4354C73.0975 25.4884 72.7296 25.5713 72.4247 25.6839C72.1198 25.7966 71.8861 25.9524 71.7237 26.1513C71.5613 26.3468 71.4801 26.5987 71.4801 26.907C71.4801 27.371 71.6458 27.7306 71.9773 27.9858C72.3087 28.2377 72.7247 28.3636 73.2251 28.3636ZM83.305 21.3636V22.1989H79.6509V29H78.766V21.3636H83.305ZM85.1644 31.8636V21.3636H86.0245V22.8203H86.1289C86.235 22.5916 86.3808 22.358 86.5664 22.1193C86.752 21.8774 86.9973 21.6735 87.3022 21.5078C87.6104 21.3421 87.9982 21.2592 88.4656 21.2592C89.0953 21.2592 89.6455 21.425 90.1161 21.7564C90.5901 22.0845 90.958 22.5452 91.2198 23.1385C91.485 23.7285 91.6175 24.4162 91.6175 25.2017C91.6175 25.9905 91.485 26.6816 91.2198 27.2749C90.958 27.8681 90.5901 28.3305 90.1161 28.6619C89.6455 28.9934 89.0986 29.1591 88.4755 29.1591C88.0148 29.1591 87.6287 29.0762 87.3171 28.9105C87.0089 28.7448 86.7586 28.541 86.5664 28.299C86.3775 28.0537 86.2317 27.8151 86.1289 27.5831H86.0494V31.8636H85.1644ZM86.0394 25.1868C86.0394 25.8033 86.1306 26.3501 86.3129 26.8274C86.4985 27.3014 86.7636 27.6742 87.1083 27.946C87.4563 28.2145 87.8772 28.3487 88.3711 28.3487C88.8782 28.3487 89.3058 28.2095 89.6538 27.9311C90.0051 27.6494 90.2719 27.2699 90.4542 26.7926C90.6398 26.3153 90.7326 25.7801 90.7326 25.1868C90.7326 24.6001 90.6415 24.0715 90.4592 23.6009C90.2802 23.1302 90.015 22.7573 89.6637 22.4822C89.3124 22.2038 88.8815 22.0646 88.3711 22.0646C87.8739 22.0646 87.4513 22.1989 87.1033 22.4673C86.7553 22.7325 86.4902 23.1004 86.3079 23.571C86.1289 24.0384 86.0394 24.5769 86.0394 25.1868ZM93.902 31.8636C93.7263 31.8636 93.5623 31.8471 93.4098 31.8139C93.2573 31.7808 93.1364 31.7443 93.0469 31.7045L93.2855 30.924C93.5871 31.0168 93.8556 31.05 94.0909 31.0234C94.3262 31.0002 94.535 30.8942 94.7173 30.7053C94.8996 30.5196 95.062 30.2346 95.2045 29.8501L95.483 29.0746L92.674 21.3636H93.6335L95.9006 27.8317H95.9702L98.2372 21.3636H99.1967L95.9652 30.2081C95.8293 30.576 95.6619 30.8826 95.4631 31.1278C95.2642 31.3764 95.0339 31.5604 94.772 31.6797C94.5135 31.8023 94.2235 31.8636 93.902 31.8636ZM100.436 27.0511H101.376C101.402 27.4588 101.578 27.777 101.903 28.0057C102.227 28.2344 102.655 28.3487 103.185 28.3487C103.735 28.3487 104.189 28.2261 104.547 27.9808C104.905 27.7322 105.084 27.371 105.084 26.897C105.084 26.6087 105.016 26.3584 104.881 26.1463C104.748 25.9342 104.566 25.7685 104.334 25.6491C104.105 25.5265 103.845 25.4635 103.553 25.4602H102.221V24.6499H103.538C103.992 24.6233 104.337 24.5007 104.572 24.282C104.808 24.0599 104.925 23.7699 104.925 23.4119C104.925 23.0043 104.781 22.6778 104.493 22.4325C104.204 22.1839 103.813 22.0597 103.319 22.0597C102.819 22.0597 102.403 22.1823 102.072 22.4276C101.74 22.6728 101.564 22.9877 101.545 23.3722H100.615C100.631 22.9579 100.756 22.5933 100.988 22.2784C101.22 21.9602 101.533 21.7116 101.927 21.5327C102.325 21.3537 102.776 21.2642 103.28 21.2642C103.797 21.2642 104.246 21.357 104.627 21.5426C105.008 21.7282 105.303 21.9818 105.512 22.3033C105.721 22.6214 105.825 22.9827 105.825 23.3871C105.825 23.808 105.709 24.1544 105.477 24.4261C105.248 24.6946 104.955 24.8835 104.597 24.9929V25.0675C104.869 25.0973 105.108 25.1967 105.313 25.3658C105.522 25.5348 105.686 25.7519 105.805 26.017C105.925 26.2822 105.984 26.5755 105.984 26.897C105.984 27.3478 105.867 27.7438 105.631 28.0852C105.396 28.4233 105.068 28.6868 104.647 28.8757C104.229 29.0646 103.747 29.1591 103.2 29.1591C102.673 29.1591 102.204 29.0713 101.793 28.8956C101.382 28.7166 101.056 28.4697 100.814 28.1548C100.575 27.8366 100.449 27.4688 100.436 27.0511ZM108.69 27.7422L112.722 21.3636H113.781V29H112.896V22.6214L108.879 29H107.805V21.3636H108.69V27.7422ZM115.049 22.1989V21.3636H121.015V22.1989H118.489V29H117.604V22.1989H115.049ZM125.576 29.1591C124.863 29.1591 124.247 28.9934 123.727 28.6619C123.206 28.3272 122.804 27.8648 122.518 27.2749C122.237 26.6816 122.096 25.9988 122.096 25.2266C122.096 24.4576 122.237 23.7749 122.518 23.1783C122.804 22.5784 123.196 22.1094 123.697 21.7713C124.201 21.4299 124.782 21.2592 125.442 21.2592C125.856 21.2592 126.255 21.3355 126.64 21.4879C127.024 21.6371 127.369 21.8674 127.674 22.179C127.982 22.4872 128.226 22.8767 128.405 23.3473C128.584 23.8146 128.673 24.3681 128.673 25.0078V25.4453H122.707V24.6648H127.768C127.768 24.1742 127.669 23.7334 127.47 23.3423C127.275 22.9479 127.001 22.6364 126.65 22.4077C126.302 22.179 125.899 22.0646 125.442 22.0646C124.958 22.0646 124.532 22.1939 124.164 22.4524C123.796 22.7109 123.508 23.0523 123.299 23.4766C123.094 23.9008 122.989 24.3648 122.986 24.8686V25.3359C122.986 25.9425 123.09 26.4728 123.299 26.9268C123.511 27.3776 123.811 27.7273 124.199 27.9759C124.587 28.2244 125.046 28.3487 125.576 28.3487C125.937 28.3487 126.254 28.2924 126.526 28.1797C126.801 28.067 127.031 27.9162 127.217 27.7273C127.406 27.535 127.548 27.3246 127.644 27.0959L128.484 27.3693C128.368 27.6908 128.178 27.9875 127.913 28.2592C127.651 28.531 127.323 28.7498 126.928 28.9155C126.537 29.0779 126.086 29.1591 125.576 29.1591ZM134.561 29V21.3636H137.569C138.381 21.3636 139.02 21.5393 139.488 21.8906C139.958 22.242 140.194 22.7159 140.194 23.3125C140.194 23.7666 140.063 24.1295 139.801 24.4013C139.539 24.6731 139.188 24.8653 138.747 24.978C139.042 25.0277 139.315 25.1354 139.567 25.3011C139.823 25.4669 140.03 25.6856 140.189 25.9574C140.348 26.2292 140.427 26.554 140.427 26.9318C140.427 27.3295 140.328 27.6842 140.129 27.9957C139.93 28.3073 139.65 28.5526 139.289 28.7315C138.928 28.9105 138.5 29 138.006 29H134.561ZM135.406 28.1797H138.006C138.474 28.1797 138.843 28.0604 139.115 27.8217C139.387 27.5798 139.523 27.2583 139.523 26.8572C139.523 26.4297 139.393 26.0883 139.135 25.8331C138.88 25.5746 138.537 25.4453 138.106 25.4453H135.406V28.1797ZM135.406 24.6598H137.623C137.968 24.6598 138.266 24.6068 138.518 24.5007C138.77 24.3946 138.964 24.2455 139.1 24.0533C139.239 23.8577 139.307 23.629 139.304 23.3672C139.304 22.9927 139.151 22.7027 138.846 22.4972C138.541 22.2884 138.116 22.1839 137.569 22.1839H135.406V24.6598Z" fill="white"/>
<path d="M43.497 42.8205C43.0661 43.7987 42.5561 44.6992 41.9651 45.5271C41.1596 46.6557 40.5001 47.4369 39.9918 47.8707C39.2039 48.5828 38.3597 48.9475 37.4557 48.9682C36.8067 48.9682 36.024 48.7867 35.113 48.4186C34.199 48.0522 33.359 47.8707 32.5909 47.8707C31.7854 47.8707 30.9215 48.0522 29.9975 48.4186C29.072 48.7867 28.3265 48.9786 27.7565 48.9976C26.8896 49.0339 26.0255 48.6588 25.163 47.8707C24.6125 47.3989 23.924 46.59 23.0991 45.4441C22.2141 44.2205 21.4865 42.8015 20.9165 41.1838C20.306 39.4364 20 37.7444 20 36.1062C20 34.2298 20.4126 32.6114 21.239 31.2551C21.8886 30.1658 22.7526 29.3064 23.8341 28.6756C24.9156 28.0447 26.0841 27.7233 27.3425 27.7027C28.031 27.7027 28.934 27.912 30.056 28.3233C31.175 28.7361 31.8934 28.9454 32.2084 28.9454C32.4439 28.9454 33.242 28.7006 34.595 28.2127C35.8745 27.7602 36.9544 27.5729 37.8391 27.6467C40.2363 27.8368 42.0372 28.7654 43.2349 30.4385C41.091 31.715 40.0305 33.503 40.0516 35.7967C40.0709 37.5833 40.7305 39.07 42.0267 40.2505C42.6141 40.7983 43.2701 41.2218 44 41.5225C43.8417 41.9736 43.6746 42.4057 43.497 42.8205ZM37.9991 21.5602C37.9991 22.9605 37.4785 24.268 36.4409 25.4781C35.1886 26.9168 33.674 27.7481 32.0315 27.617C32.0106 27.449 31.9984 27.2722 31.9984 27.0864C31.9984 25.7421 32.5939 24.3034 33.6515 23.1271C34.1795 22.5315 34.8509 22.0363 35.6653 21.6412C36.4778 21.2521 37.2464 21.0369 37.9692 21C37.9903 21.1872 37.9991 21.3744 37.9991 21.5601V21.5602Z" fill="white"/>
</svg>
