<svg width="210" height="70" viewBox="0 0 210 70" fill="none" xmlns="http://www.w3.org/2000/svg">
<g clip-path="url(#clip0_179_51781)">
<path d="M192.736 0.00010543H16.6857C16.044 0.00010543 15.4099 0.00010543 14.7699 0.00360543C14.2341 0.00710543 13.7027 0.0172729 13.1617 0.0258304C11.9866 0.0396586 10.8143 0.143039 9.65492 0.335073C8.49717 0.531288 7.37568 0.901208 6.32838 1.43232C5.28237 1.96793 4.3266 2.6639 3.49575 3.49498C2.66053 4.32372 1.96431 5.28163 1.43386 6.33189C0.90195 7.38005 0.533121 8.50325 0.340113 9.6627C0.145269 10.8207 0.0404222 11.992 0.0265125 13.1662C0.0102725 13.7027 0.0085575 14.2411 0 14.7777V55.2277C0.0085575 55.771 0.0102725 56.2974 0.0265125 56.841C0.0404264 58.0151 0.145273 59.1864 0.340113 60.3443C0.532588 61.5044 0.901439 62.6283 1.43386 63.6768C1.96407 64.7237 2.66039 65.6777 3.49575 66.5019C4.32345 67.3366 5.27984 68.0331 6.32838 68.5646C7.37567 69.0971 8.49704 69.4692 9.65492 69.6685C10.8145 69.859 11.9867 69.9624 13.1617 69.9779C13.7027 69.9898 14.2341 69.9966 14.7699 69.9966C15.4099 70.0001 16.044 70.0001 16.6857 70.0001H192.736C193.365 70.0001 194.004 70.0001 194.633 69.9966C195.166 69.9966 195.713 69.9898 196.246 69.9779C197.419 69.9632 198.589 69.8598 199.746 69.6685C200.908 69.4678 202.033 69.0958 203.086 68.5646C204.133 68.0328 205.089 67.3363 205.916 66.5019C206.749 65.6745 207.447 64.7212 207.983 63.6768C208.512 62.6275 208.877 61.5038 209.067 60.3443C209.262 59.1862 209.371 58.0152 209.392 56.841C209.398 56.2974 209.398 55.771 209.398 55.2277C209.412 54.5919 209.412 53.9596 209.412 53.3135V16.6883C209.412 16.0475 209.412 15.4117 209.398 14.7777C209.398 14.2411 209.398 13.7027 209.392 13.1661C209.371 11.9918 209.262 10.8208 209.067 9.66263C208.877 8.50385 208.511 7.38074 207.983 6.33182C206.903 4.2267 205.19 2.51315 203.086 1.43217C202.033 0.902348 200.908 0.532526 199.746 0.334915C198.589 0.142035 197.419 0.038619 196.246 0.0255854C195.713 0.0170454 195.166 0.00679043 194.633 0.00337793C194.004 -0.00012207 193.365 -0.00012207 192.736 -0.00012207V0.00010543Z" fill="#A6A6A6"/>
<path d="M14.7785 68.4687C14.2453 68.4687 13.725 68.4619 13.1959 68.45C12.1001 68.4357 11.0067 68.3403 9.92495 68.1646C8.91624 67.9909 7.93906 67.6677 7.02566 67.2058C6.12063 66.7477 5.29517 66.147 4.58091 65.4267C3.8563 64.715 3.25304 63.8894 2.79502 62.9828C2.33195 62.0704 2.01148 61.0923 1.84477 60.0827C1.66473 58.9979 1.56733 57.901 1.55339 56.8015C1.5423 56.4324 1.52777 55.2036 1.52777 55.2036V14.7776C1.52777 14.7776 1.54324 13.5676 1.55348 13.2121C1.56682 12.1143 1.66366 11.0191 1.84316 9.93603C2.01017 8.92369 2.33089 7.94281 2.79421 7.02735C3.25055 6.1214 3.85047 5.29526 4.57071 4.58094C5.29014 3.85984 6.11823 3.25606 7.0248 2.79162C7.93611 2.33116 8.91143 2.01028 9.91811 1.83972C11.0035 1.66221 12.1006 1.56624 13.2003 1.55262L14.7793 1.53125H194.624L196.222 1.55348C197.312 1.56642 198.399 1.66154 199.474 1.83801C200.491 2.01071 201.477 2.33383 202.398 2.79674C204.215 3.73273 205.692 5.21354 206.625 7.03162C207.081 7.94076 207.396 8.91364 207.561 9.91723C207.743 11.0092 207.845 12.113 207.865 13.2198C207.871 13.7154 207.871 14.2478 207.871 14.7776C207.884 15.4338 207.884 16.0585 207.884 16.6882V53.3134C207.884 53.9492 207.884 54.5695 207.871 55.195C207.871 55.7641 207.871 56.2854 207.864 56.822C207.843 57.909 207.743 58.9931 207.565 60.0656C207.401 61.0825 207.083 62.0681 206.62 62.9881C206.158 63.8848 205.559 64.7032 204.842 65.4131C204.127 66.1372 203.301 66.7414 202.393 67.2024C201.474 67.6679 200.49 67.9923 199.474 68.1646C198.393 68.3413 197.299 68.4367 196.203 68.45C195.691 68.4619 195.154 68.4687 194.633 68.4687L192.736 68.4722L14.7785 68.4687Z" fill="black"/>
<path d="M43.3456 35.5262C43.3644 34.0655 43.7524 32.6334 44.4734 31.3629C45.1944 30.0925 46.2251 29.0251 47.4695 28.2601C46.679 27.1311 45.6361 26.2019 44.4236 25.5464C43.2112 24.891 41.8626 24.5272 40.485 24.4841C37.5463 24.1757 34.6974 26.2426 33.1999 26.2426C31.6735 26.2426 29.3678 24.5148 26.8851 24.5658C25.2791 24.6177 23.714 25.0847 22.3422 25.9213C20.9704 26.7579 19.8388 27.9356 19.0574 29.3396C15.6729 35.1994 18.1975 43.8112 21.4395 48.5478C23.0616 50.8671 24.9574 53.4579 27.4379 53.366C29.8653 53.2654 30.7718 51.8182 33.7018 51.8182C36.6047 51.8182 37.4552 53.366 39.9861 53.3076C42.5908 53.2653 44.2318 50.978 45.797 48.6366C46.9624 46.984 47.8593 45.1575 48.4542 43.2247C46.941 42.5847 45.6496 41.5134 44.7412 40.1444C43.8327 38.7754 43.3473 37.1692 43.3456 35.5262V35.5262Z" fill="white"/>
<path d="M38.5652 21.3691C39.9854 19.6642 40.685 17.4729 40.5156 15.2605C38.3459 15.4884 36.3417 16.5254 34.9023 18.1648C34.1986 18.9657 33.6596 19.8975 33.3162 20.9068C32.9727 21.9162 32.8316 22.9833 32.9009 24.0472C33.9861 24.0584 35.0597 23.8232 36.0409 23.3593C37.022 22.8954 37.8852 22.2149 38.5652 21.3691Z" fill="white"/>
<path d="M74.029 47.4943H65.7455L63.7563 53.3681H60.2477L68.0937 31.6366H71.7389L79.5849 53.3681H76.0165L74.029 47.4943ZM66.6034 44.7839H73.1694L69.9326 35.2511H69.842L66.6034 44.7839Z" fill="white"/>
<path d="M96.5295 45.447C96.5295 50.3706 93.8942 53.5339 89.9174 53.5339C88.91 53.5866 87.9081 53.3546 87.0265 52.8643C86.1449 52.3741 85.4191 51.6455 84.9323 50.7619H84.8571V58.6096H81.6049V37.5242H84.7529V40.1594H84.8127C85.3218 39.2801 86.0599 38.5553 86.9482 38.062C87.8366 37.5688 88.842 37.3256 89.8576 37.3584C93.8788 37.3584 96.5295 40.5371 96.5295 45.447ZM93.1867 45.447C93.1867 42.2393 91.529 40.1304 88.9997 40.1304C86.5148 40.1304 84.8434 42.2837 84.8434 45.447C84.8434 48.6394 86.5148 50.7774 88.9997 50.7774C91.529 50.7774 93.1867 48.6838 93.1867 45.447Z" fill="white"/>
<path d="M113.968 45.447C113.968 50.3706 111.333 53.5339 107.356 53.5339C106.348 53.5866 105.347 53.3546 104.465 52.8643C103.583 52.3741 102.858 51.6455 102.371 50.7619H102.296V58.6096H99.0433V37.5242H102.191V40.1594H102.251C102.76 39.2801 103.498 38.5553 104.387 38.062C105.275 37.5688 106.28 37.3256 107.296 37.3584C111.317 37.3584 113.968 40.5371 113.968 45.447ZM110.625 45.447C110.625 42.2393 108.967 40.1304 106.438 40.1304C103.953 40.1304 102.282 42.2837 102.282 45.447C102.282 48.6394 103.953 50.7773 106.438 50.7773C108.967 50.7773 110.625 48.6838 110.625 45.447H110.625Z" fill="white"/>
<path d="M125.493 47.3132C125.734 49.4682 127.828 50.8832 130.689 50.8832C133.43 50.8832 135.402 49.4682 135.402 47.525C135.402 45.8383 134.213 44.8283 131.396 44.1361L128.58 43.4577C124.589 42.4938 122.737 40.6276 122.737 37.5992C122.737 33.8497 126.004 31.2743 130.644 31.2743C135.236 31.2743 138.384 33.8497 138.49 37.5992H135.207C135.011 35.4305 133.218 34.1215 130.598 34.1215C127.978 34.1215 126.185 35.4459 126.185 37.3737C126.185 38.91 127.33 39.8141 130.131 40.5062L132.526 41.0941C136.984 42.1485 138.837 43.9396 138.837 47.1182C138.837 51.1839 135.599 53.7303 130.448 53.7303C125.628 53.7303 122.374 51.2437 122.164 47.313L125.493 47.3132Z" fill="white"/>
<path d="M145.856 33.7747V37.5242H148.869V40.0996H145.856V48.8342C145.856 50.1912 146.459 50.8235 147.784 50.8235C148.141 50.8173 148.498 50.7921 148.853 50.7482V53.3083C148.258 53.4196 147.653 53.47 147.047 53.4587C143.839 53.4587 142.588 52.2539 142.588 49.1811V40.0996H140.285V37.5242H142.588V33.7747H145.856Z" fill="white"/>
<path d="M150.614 45.447C150.614 40.4619 153.55 37.3293 158.128 37.3293C162.722 37.3293 165.644 40.4618 165.644 45.447C165.644 50.4458 162.737 53.5647 158.128 53.5647C153.521 53.5647 150.614 50.4458 150.614 45.447ZM162.331 45.447C162.331 42.0273 160.763 40.009 158.128 40.009C155.493 40.009 153.927 42.0427 153.927 45.447C153.927 48.8804 155.493 50.8833 158.128 50.8833C160.763 50.8833 162.33 48.8804 162.33 45.447H162.331Z" fill="white"/>
<path d="M168.326 37.5241H171.427V40.2209H171.503C171.713 39.3786 172.206 38.6343 172.9 38.113C173.594 37.5917 174.446 37.3252 175.314 37.3583C175.689 37.357 176.062 37.3977 176.428 37.4797V40.5217C175.955 40.3771 175.461 40.3107 174.967 40.3252C174.494 40.306 174.023 40.3893 173.586 40.5693C173.149 40.7494 172.756 41.0219 172.434 41.3682C172.112 41.7145 171.869 42.1264 171.721 42.5756C171.573 43.0248 171.524 43.5006 171.578 43.9704V53.3681H168.326L168.326 37.5241Z" fill="white"/>
<path d="M191.423 48.7146C190.985 51.5908 188.184 53.5647 184.6 53.5647C179.991 53.5647 177.13 50.4765 177.13 45.5222C177.13 40.5525 180.007 37.3293 184.464 37.3293C188.847 37.3293 191.604 40.3406 191.604 45.1445V46.2588H180.413V46.4553C180.362 47.0384 180.435 47.6258 180.627 48.1786C180.82 48.7313 181.128 49.2366 181.532 49.6611C181.935 50.0856 182.424 50.4194 182.966 50.6404C183.508 50.8615 184.091 50.9646 184.675 50.9431C185.444 51.0151 186.215 50.8371 186.875 50.4356C187.534 50.0341 188.046 49.4305 188.334 48.7146L191.423 48.7146ZM180.429 43.9858H188.35C188.379 43.4615 188.3 42.9369 188.116 42.4448C187.933 41.9526 187.65 41.5037 187.285 41.1261C186.92 40.7485 186.481 40.4504 185.996 40.2506C185.51 40.0507 184.989 39.9533 184.464 39.9646C183.934 39.9614 183.409 40.0632 182.919 40.264C182.429 40.4648 181.983 40.7607 181.608 41.1345C181.233 41.5084 180.936 41.9528 180.733 42.4422C180.531 42.9316 180.427 43.4562 180.429 43.9859V43.9858Z" fill="white"/>
<path d="M64.292 19.6934H65.6883C65.9286 19.7234 66.1726 19.7032 66.4048 19.6342C66.6369 19.5651 66.8523 19.4488 67.0372 19.2924C67.2222 19.136 67.3728 18.943 67.4794 18.7255C67.5861 18.5081 67.6466 18.2709 67.657 18.0289C67.657 17.0659 66.9324 16.4438 65.7037 16.4438C65.4574 16.4094 65.2068 16.4247 64.9665 16.4887C64.7263 16.5528 64.5013 16.6644 64.3049 16.8168C64.1085 16.9693 63.9446 17.1595 63.8229 17.3764C63.7012 17.5932 63.6242 17.8322 63.5965 18.0793H62.0635C62.0899 17.6308 62.2083 17.1925 62.4114 16.7917C62.6145 16.3909 62.898 16.0363 63.2441 15.7498C63.5902 15.4633 63.9916 15.2512 64.4233 15.1265C64.8549 15.0019 65.3076 14.9674 65.7532 15.0253C67.8091 15.0253 69.2567 16.1763 69.2567 17.8332C69.2615 18.3883 69.0758 18.9282 68.7306 19.3628C68.3853 19.7975 67.9014 20.1006 67.3597 20.2215V20.3446C68.0019 20.373 68.6068 20.6546 69.042 21.1278C69.4772 21.601 69.7074 22.2272 69.6822 22.8696C69.6347 23.3314 69.4954 23.7791 69.2726 24.1864C69.0499 24.5937 68.748 24.9524 68.3848 25.2415C68.0216 25.5307 67.6043 25.7444 67.1574 25.8701C66.7105 25.9959 66.243 26.0312 65.7823 25.974C65.3206 26.0369 64.851 26.0062 64.4014 25.8838C63.9519 25.7614 63.5315 25.5497 63.1655 25.2613C62.7995 24.973 62.4953 24.6139 62.2711 24.2055C62.0468 23.7971 61.907 23.3477 61.8602 22.8841H63.4171C63.5111 23.883 64.4288 24.5274 65.7823 24.5274C67.1358 24.5274 68.0193 23.8036 68.0193 22.7834C68.0193 21.7486 67.1871 21.1111 65.7327 21.1111H64.292V19.6934Z" fill="white"/>
<path d="M71.451 23.4925C71.451 22.0741 72.5088 21.2563 74.3819 21.1401L76.5164 21.0171V20.3369C76.5164 19.5046 75.9678 19.0347 74.9031 19.0347C74.035 19.0347 73.4351 19.3534 73.2608 19.9105H71.7552C71.9141 18.557 73.189 17.6888 74.9766 17.6888C76.9522 17.6888 78.0665 18.6723 78.0665 20.3369V25.7211H76.5677V24.6136H76.4446C76.1949 25.0109 75.8442 25.3347 75.4283 25.5521C75.0125 25.7695 74.5464 25.8726 74.0777 25.8509C73.7469 25.8853 73.4125 25.85 73.0962 25.7473C72.7799 25.6446 72.4886 25.4767 72.2411 25.2545C71.9936 25.0323 71.7955 24.7607 71.6594 24.4572C71.5233 24.1538 71.4523 23.8251 71.451 23.4925V23.4925ZM76.5164 22.8192V22.1604L74.592 22.2834C73.5068 22.3561 73.0146 22.7252 73.0146 23.4199C73.0146 24.1291 73.6299 24.5418 74.4759 24.5418C74.7238 24.5669 74.9742 24.5419 75.2122 24.4683C75.4502 24.3946 75.671 24.2738 75.8614 24.1131C76.0517 23.9524 76.2078 23.755 76.3204 23.5327C76.4329 23.3104 76.4996 23.0678 76.5164 22.8192V22.8192Z" fill="white"/>
<path d="M82.1937 19.15V25.7211H80.6385V17.8409H85.827V19.1499L82.1937 19.15Z" fill="white"/>
<path d="M95.252 21.7775C95.252 24.2812 93.9857 25.8509 91.9964 25.8509C91.5081 25.8842 91.0204 25.7774 90.5908 25.5429C90.1612 25.3084 89.8075 24.956 89.5714 24.5273H89.4483V28.3409H87.8931V17.8409H89.3902V19.1432H89.5064C89.7468 18.6994 90.1051 18.3308 90.5418 18.0779C90.9784 17.825 91.4765 17.6978 91.981 17.7102C93.9856 17.7101 95.252 19.273 95.252 21.7775ZM93.6524 21.7775C93.6524 20.113 92.8646 19.1072 91.547 19.1072C90.238 19.1072 89.4193 20.1343 89.4193 21.7844C89.4193 23.4267 90.2379 24.4546 91.5401 24.4546C92.8646 24.4546 93.6524 23.4489 93.6524 21.7775Z" fill="white"/>
<path d="M97.3233 28.5435V27.2045C97.4916 27.2259 97.6612 27.2356 97.8308 27.2335C98.1621 27.2581 98.4909 27.1594 98.7539 26.9564C99.017 26.7535 99.1958 26.4605 99.2561 26.1338L99.3723 25.7501L96.52 17.8409H98.2136L100.189 24.1001H100.312L102.281 17.8409H103.93L100.993 26.0466C100.319 27.9641 99.5741 28.5794 97.9676 28.5794C97.8377 28.5793 97.4686 28.5648 97.3233 28.5435Z" fill="white"/>
<path d="M105.142 23.4848H106.69C106.842 24.1795 107.494 24.5418 108.404 24.5418C109.44 24.5418 110.076 24.0855 110.076 23.3763C110.076 22.6167 109.505 22.2544 108.404 22.2544H107.225V21.0461H108.384C109.324 21.0461 109.802 20.6847 109.802 20.0259C109.802 19.4474 109.339 19.0056 108.384 19.0056C107.514 19.0056 106.878 19.3747 106.777 19.9968H105.279C105.391 19.282 105.779 18.6397 106.359 18.2081C106.94 17.7765 107.667 17.59 108.384 17.6888C110.257 17.6888 111.328 18.5356 111.328 19.8669C111.337 20.2377 111.218 20.6002 110.992 20.8938C110.765 21.1875 110.445 21.3945 110.084 21.4802V21.6033C110.514 21.6587 110.908 21.8698 111.192 22.1967C111.476 22.5235 111.631 22.9433 111.626 23.3763C111.626 24.8743 110.351 25.8655 108.404 25.8655C106.683 25.8654 105.285 25.0767 105.142 23.4848Z" fill="white"/>
<path d="M113.865 25.7211V17.8409H115.407V23.261H115.53L119.162 17.841H120.703V25.7211H119.162V20.272H119.045L115.407 25.7211L113.865 25.7211Z" fill="white"/>
<path d="M129.195 19.1499H126.713V25.721H125.157V19.1499H122.675V17.8409H129.195V19.1499Z" fill="white"/>
<path d="M137.572 23.5933C137.361 24.3134 136.902 24.9363 136.278 25.353C135.653 25.7697 134.903 25.9537 134.156 25.8731C133.637 25.8868 133.121 25.7873 132.644 25.5817C132.167 25.376 131.741 25.069 131.395 24.682C131.048 24.295 130.79 23.8373 130.639 23.3406C130.487 22.8439 130.445 22.3201 130.516 21.8057C130.447 21.2896 130.489 20.7647 130.641 20.2666C130.792 19.7684 131.049 19.3085 131.393 18.9182C131.738 18.5278 132.162 18.216 132.638 18.0039C133.113 17.7918 133.629 17.6843 134.149 17.6887C136.342 17.6887 137.666 19.1867 137.666 21.6612V22.2039H132.102V22.2911C132.077 22.5803 132.113 22.8715 132.208 23.1459C132.303 23.4204 132.454 23.672 132.651 23.8846C132.849 24.0972 133.089 24.2661 133.356 24.3805C133.623 24.4948 133.91 24.5521 134.201 24.5486C134.572 24.593 134.949 24.5259 135.282 24.3558C135.616 24.1857 135.891 23.9203 136.074 23.5932L137.572 23.5933ZM132.102 21.0537H136.08C136.1 20.7894 136.064 20.5239 135.975 20.2742C135.886 20.0245 135.746 19.7963 135.563 19.604C135.381 19.4118 135.16 19.2598 134.915 19.158C134.671 19.0561 134.407 19.0065 134.142 19.0124C133.873 19.0087 133.606 19.059 133.357 19.1603C133.108 19.2616 132.881 19.4119 132.691 19.6022C132.501 19.7925 132.351 20.019 132.25 20.2683C132.148 20.5176 132.098 20.7847 132.102 21.0537H132.102Z" fill="white"/>
<path d="M144.166 17.8409H147.719C149.26 17.8409 150.164 18.6219 150.164 19.8447C150.167 20.2327 150.036 20.6097 149.793 20.9127C149.551 21.2157 149.212 21.4263 148.833 21.5092V21.6323C149.293 21.6614 149.725 21.8661 150.038 22.2042C150.352 22.5422 150.524 22.9878 150.518 23.4489C150.518 24.8238 149.484 25.721 147.755 25.721H144.166V17.8409ZM145.707 19.0347V21.0752H147.249C148.189 21.0752 148.638 20.7137 148.638 20.0472C148.638 19.4328 148.247 19.0347 147.421 19.0347L145.707 19.0347ZM145.707 22.2185V24.5274H147.551C148.471 24.5274 148.963 24.1215 148.963 23.3764C148.963 22.5877 148.406 22.2185 147.356 22.2185L145.707 22.2185Z" fill="white"/>
</g>
<defs>
<clipPath id="clip0_179_51781">
<rect width="209.412" height="70" fill="white"/>
</clipPath>
</defs>
</svg>
