<svg width="105" height="105" viewBox="0 0 105 105" fill="none" xmlns="http://www.w3.org/2000/svg">
<path d="M17.5 28C15.1794 28 12.9538 28.9219 11.3128 30.5628C9.67187 32.2038 8.75 34.4294 8.75 36.75V78.75C8.75 81.0706 9.67187 83.2962 11.3128 84.9372C12.9538 86.5781 15.1794 87.5 17.5 87.5H22.75C23.2141 87.5 23.6592 87.6844 23.9874 88.0126C24.3156 88.3408 24.5 88.7859 24.5 89.25V101.553C24.5027 101.87 24.5938 102.181 24.7629 102.449C24.9321 102.718 25.1727 102.935 25.4578 103.074C25.7429 103.214 26.0613 103.272 26.3774 103.241C26.6935 103.21 26.9947 103.092 27.2475 102.9L46.7775 87.864C47.0834 87.6282 47.4587 87.5002 47.845 87.5H87.5C89.8206 87.5 92.0462 86.5781 93.6872 84.9372C95.3281 83.2962 96.25 81.0706 96.25 78.75V36.75C96.25 34.4294 95.3281 32.2038 93.6872 30.5628C92.0462 28.9219 89.8206 28 87.5 28H17.5Z" fill="#F0F1F2"/>
<path d="M59.5508 5.6305L84.4481 44.9757C85.2452 46.2359 85.6892 47.6871 85.7337 49.1776C85.7782 50.668 85.4216 52.1431 84.701 53.4486C83.9805 54.7541 82.9226 55.8421 81.6378 56.5989C80.353 57.3557 78.8885 57.7535 77.3973 57.7507H27.6028C26.1117 57.7535 24.6472 57.3557 23.3624 56.5989C22.0776 55.8421 21.0196 54.7541 20.2991 53.4486C19.5786 52.1431 19.2219 50.668 19.2664 49.1776C19.3109 47.6871 19.7549 46.2359 20.5521 44.9757L45.4493 5.6305C46.2021 4.44175 47.2433 3.46265 48.476 2.7842C49.7087 2.10576 51.093 1.75 52.5001 1.75C53.9071 1.75 55.2914 2.10576 56.5241 2.7842C57.7568 3.46265 58.798 4.44175 59.5508 5.6305Z" fill="#D84557"/>
<path d="M52.5 50.75C54.433 50.75 56 49.183 56 47.25C56 45.317 54.433 43.75 52.5 43.75C50.567 43.75 49 45.317 49 47.25C49 49.183 50.567 50.75 52.5 50.75Z" fill="#F0F2F5"/>
<path d="M52.5 36.75C51.5472 36.7502 50.6292 36.3923 49.928 35.7472C49.2268 35.1021 48.7938 34.217 48.7147 33.2675L47.691 20.9808C47.6356 20.3154 47.7187 19.6457 47.9352 19.0141C48.1517 18.3824 48.4968 17.8026 48.9487 17.311C49.4006 16.8195 49.9495 16.427 50.5607 16.1583C51.172 15.8896 51.8323 15.7506 52.5 15.75C53.1681 15.7499 53.829 15.8884 54.4409 16.1567C55.0527 16.4251 55.6023 16.8175 56.0548 17.3091C56.5072 17.8007 56.8528 18.3808 57.0696 19.0128C57.2863 19.6448 57.3697 20.3149 57.3142 20.9808L56.2905 33.2675C56.2114 34.2179 55.7776 35.1037 55.0753 35.749C54.373 36.3942 53.4536 36.7515 52.5 36.75Z" fill="#F0F2F5"/>
<path d="M26.25 68.25H21C20.5359 68.25 20.0908 68.0656 19.7626 67.7374C19.4344 67.4092 19.25 66.9641 19.25 66.5C19.25 66.0359 19.4344 65.5908 19.7626 65.2626C20.0908 64.9344 20.5359 64.75 21 64.75H26.25C26.7141 64.75 27.1592 64.9344 27.4874 65.2626C27.8156 65.5908 28 66.0359 28 66.5C28 66.9641 27.8156 67.4092 27.4874 67.7374C27.1592 68.0656 26.7141 68.25 26.25 68.25Z" fill="#B5B8BC"/>
<path d="M68.25 77H63C62.5359 77 62.0908 76.8156 61.7626 76.4874C61.4344 76.1592 61.25 75.7141 61.25 75.25C61.25 74.7859 61.4344 74.3408 61.7626 74.0126C62.0908 73.6844 62.5359 73.5 63 73.5H68.25C68.7141 73.5 69.1592 73.6844 69.4874 74.0126C69.8156 74.3408 70 74.7859 70 75.25C70 75.7141 69.8156 76.1592 69.4874 76.4874C69.1592 76.8156 68.7141 77 68.25 77Z" fill="#B5B8BC"/>
<path d="M75.25 68.25H33.25C32.7859 68.25 32.3408 68.0656 32.0126 67.7374C31.6844 67.4092 31.5 66.9641 31.5 66.5C31.5 66.0359 31.6844 65.5908 32.0126 65.2626C32.3408 64.9344 32.7859 64.75 33.25 64.75H75.25C75.7141 64.75 76.1593 64.9344 76.4874 65.2626C76.8156 65.5908 77 66.0359 77 66.5C77 66.9641 76.8156 67.4092 76.4874 67.7374C76.1593 68.0656 75.7141 68.25 75.25 68.25Z" fill="#B5B8BC"/>
<path d="M56 77H21C20.5359 77 20.0908 76.8156 19.7626 76.4874C19.4344 76.1592 19.25 75.7141 19.25 75.25C19.25 74.7859 19.4344 74.3408 19.7626 74.0126C20.0908 73.6844 20.5359 73.5 21 73.5H56C56.4641 73.5 56.9092 73.6844 57.2374 74.0126C57.5656 74.3408 57.75 74.7859 57.75 75.25C57.75 75.7141 57.5656 76.1592 57.2374 76.4874C56.9092 76.8156 56.4641 77 56 77Z" fill="#B5B8BC"/>
<path d="M84 68.25H82.25C81.7859 68.25 81.3408 68.0656 81.0126 67.7374C80.6844 67.4092 80.5 66.9641 80.5 66.5C80.5 66.0359 80.6844 65.5908 81.0126 65.2626C81.3408 64.9344 81.7859 64.75 82.25 64.75H84C84.4641 64.75 84.9092 64.9344 85.2374 65.2626C85.5656 65.5908 85.75 66.0359 85.75 66.5C85.75 66.9641 85.5656 67.4092 85.2374 67.7374C84.9092 68.0656 84.4641 68.25 84 68.25Z" fill="#B5B8BC"/>
</svg>
