<svg width="230" height="70" viewBox="0 0 230 70" fill="none" xmlns="http://www.w3.org/2000/svg">
<rect width="230" height="70" rx="10" fill="#333333"/>
<path d="M72.179 41.0994C72.0606 40.7159 71.8973 40.3726 71.6889 40.0696C71.4853 39.7618 71.2391 39.4991 70.9503 39.2812C70.6662 39.0634 70.3395 38.9001 69.9702 38.7912C69.6009 38.6776 69.1984 38.6207 68.7628 38.6207C67.9815 38.6207 67.2855 38.8172 66.6747 39.2102C66.0639 39.6032 65.5833 40.1809 65.233 40.9432C64.8873 41.7008 64.7145 42.6241 64.7145 43.7131C64.7145 44.8116 64.8873 45.742 65.233 46.5043C65.5786 47.2666 66.0592 47.8466 66.6747 48.2443C67.2902 48.6373 68.0052 48.8338 68.8196 48.8338C69.5582 48.8338 70.1974 48.6918 70.7372 48.4077C71.2817 48.1236 71.7008 47.7211 71.9943 47.2003C72.2879 46.6747 72.4347 46.0592 72.4347 45.3537L73.0312 45.446H69.0824V43.3864H74.9844V45.1335C74.9844 46.3788 74.7192 47.456 74.1889 48.3651C73.6586 49.2741 72.9295 49.9749 72.0014 50.4673C71.0734 50.955 70.008 51.1989 68.8054 51.1989C67.4654 51.1989 66.2888 50.8982 65.2756 50.2969C64.267 49.6908 63.4787 48.8314 62.9105 47.7188C62.3471 46.6013 62.0653 45.2756 62.0653 43.7415C62.0653 42.5672 62.2311 41.5185 62.5625 40.5952C62.8987 39.6719 63.3674 38.8883 63.9688 38.2443C64.5701 37.5956 65.2756 37.1032 66.0852 36.767C66.8949 36.4261 67.7756 36.2557 68.7273 36.2557C69.5322 36.2557 70.2827 36.3741 70.9787 36.6108C71.6747 36.8428 72.2926 37.1742 72.8324 37.6051C73.3769 38.036 73.8243 38.5473 74.1747 39.1392C74.5251 39.7311 74.7547 40.3845 74.8636 41.0994H72.179ZM82.1772 51.2131C81.1119 51.2131 80.1886 50.9787 79.4073 50.5099C78.6261 50.0412 78.02 49.3854 77.5891 48.5426C77.163 47.6998 76.9499 46.715 76.9499 45.5881C76.9499 44.4612 77.163 43.474 77.5891 42.6264C78.02 41.7789 78.6261 41.1207 79.4073 40.652C80.1886 40.1832 81.1119 39.9489 82.1772 39.9489C83.2425 39.9489 84.1658 40.1832 84.9471 40.652C85.7283 41.1207 86.332 41.7789 86.7582 42.6264C87.189 43.474 87.4045 44.4612 87.4045 45.5881C87.4045 46.715 87.189 47.6998 86.7582 48.5426C86.332 49.3854 85.7283 50.0412 84.9471 50.5099C84.1658 50.9787 83.2425 51.2131 82.1772 51.2131ZM82.1914 49.1534C82.7691 49.1534 83.252 48.9948 83.6403 48.6776C84.0285 48.3556 84.3174 47.9247 84.5067 47.3849C84.7009 46.8452 84.7979 46.2438 84.7979 45.581C84.7979 44.9134 84.7009 44.3097 84.5067 43.7699C84.3174 43.2254 84.0285 42.7921 83.6403 42.4702C83.252 42.1482 82.7691 41.9872 82.1914 41.9872C81.5996 41.9872 81.1071 42.1482 80.7141 42.4702C80.3259 42.7921 80.0347 43.2254 79.8406 43.7699C79.6512 44.3097 79.5565 44.9134 79.5565 45.581C79.5565 46.2438 79.6512 46.8452 79.8406 47.3849C80.0347 47.9247 80.3259 48.3556 80.7141 48.6776C81.1071 48.9948 81.5996 49.1534 82.1914 49.1534ZM94.3452 51.2131C93.2798 51.2131 92.3565 50.9787 91.5753 50.5099C90.794 50.0412 90.188 49.3854 89.7571 48.5426C89.331 47.6998 89.1179 46.715 89.1179 45.5881C89.1179 44.4612 89.331 43.474 89.7571 42.6264C90.188 41.7789 90.794 41.1207 91.5753 40.652C92.3565 40.1832 93.2798 39.9489 94.3452 39.9489C95.4105 39.9489 96.3338 40.1832 97.1151 40.652C97.8963 41.1207 98.5 41.7789 98.9261 42.6264C99.357 43.474 99.5724 44.4612 99.5724 45.5881C99.5724 46.715 99.357 47.6998 98.9261 48.5426C98.5 49.3854 97.8963 50.0412 97.1151 50.5099C96.3338 50.9787 95.4105 51.2131 94.3452 51.2131ZM94.3594 49.1534C94.937 49.1534 95.42 48.9948 95.8082 48.6776C96.1965 48.3556 96.4853 47.9247 96.6747 47.3849C96.8688 46.8452 96.9659 46.2438 96.9659 45.581C96.9659 44.9134 96.8688 44.3097 96.6747 43.7699C96.4853 43.2254 96.1965 42.7921 95.8082 42.4702C95.42 42.1482 94.937 41.9872 94.3594 41.9872C93.7675 41.9872 93.2751 42.1482 92.8821 42.4702C92.4938 42.7921 92.2027 43.2254 92.0085 43.7699C91.8191 44.3097 91.7244 44.9134 91.7244 45.581C91.7244 46.2438 91.8191 46.8452 92.0085 47.3849C92.2027 47.9247 92.4938 48.3556 92.8821 48.6776C93.2751 48.9948 93.7675 49.1534 94.3594 49.1534ZM106.499 55.3182C105.576 55.3182 104.783 55.1927 104.12 54.9418C103.457 54.6955 102.924 54.3641 102.522 53.9474C102.119 53.5308 101.84 53.0691 101.684 52.5625L103.999 52.0014C104.103 52.2145 104.255 52.4252 104.453 52.6335C104.652 52.8466 104.92 53.0218 105.256 53.1591C105.597 53.3011 106.025 53.3722 106.542 53.3722C107.271 53.3722 107.874 53.1946 108.353 52.8395C108.831 52.4891 109.07 51.9115 109.07 51.1065V49.0398H108.942C108.81 49.3049 108.615 49.5772 108.36 49.8565C108.109 50.1359 107.775 50.3703 107.358 50.5597C106.946 50.7491 106.428 50.8438 105.803 50.8438C104.965 50.8438 104.205 50.6473 103.523 50.2543C102.846 49.8565 102.306 49.2647 101.904 48.4787C101.506 47.688 101.307 46.6984 101.307 45.5099C101.307 44.312 101.506 43.3011 101.904 42.4773C102.306 41.6487 102.848 41.0213 103.53 40.5952C104.212 40.1643 104.972 39.9489 105.81 39.9489C106.449 39.9489 106.975 40.0578 107.387 40.2756C107.803 40.4886 108.135 40.7467 108.381 41.0497C108.627 41.348 108.814 41.6297 108.942 41.8949H109.084V40.0909H111.62V51.1776C111.62 52.1103 111.397 52.8821 110.952 53.4929C110.507 54.1037 109.899 54.5606 109.127 54.8636C108.355 55.1667 107.479 55.3182 106.499 55.3182ZM106.52 48.8267C107.065 48.8267 107.529 48.6941 107.912 48.429C108.296 48.1638 108.587 47.7827 108.786 47.2855C108.985 46.7884 109.084 46.1918 109.084 45.4957C109.084 44.8092 108.985 44.2079 108.786 43.6918C108.592 43.1757 108.303 42.7756 107.919 42.4915C107.541 42.2027 107.074 42.0582 106.52 42.0582C105.947 42.0582 105.469 42.2074 105.086 42.5057C104.702 42.804 104.413 43.2135 104.219 43.7344C104.025 44.2505 103.928 44.8376 103.928 45.4957C103.928 46.1634 104.025 46.7481 104.219 47.25C104.418 47.7472 104.709 48.1354 105.093 48.4148C105.481 48.6894 105.957 48.8267 106.52 48.8267ZM116.826 36.4545V51H114.255V36.4545H116.826ZM124.299 51.2131C123.205 51.2131 122.261 50.9858 121.465 50.5312C120.674 50.072 120.066 49.4233 119.64 48.5852C119.214 47.7424 119.001 46.7505 119.001 45.6094C119.001 44.4872 119.214 43.5024 119.64 42.6548C120.071 41.8026 120.672 41.1397 121.444 40.6662C122.216 40.188 123.122 39.9489 124.164 39.9489C124.836 39.9489 125.471 40.0578 126.067 40.2756C126.669 40.4886 127.199 40.8201 127.658 41.2699C128.122 41.7197 128.487 42.2926 128.752 42.9886C129.017 43.6799 129.15 44.5038 129.15 45.4602V46.2486H120.208V44.5156H126.685C126.681 44.0232 126.574 43.5852 126.366 43.2017C126.157 42.8134 125.866 42.508 125.492 42.2855C125.123 42.063 124.692 41.9517 124.2 41.9517C123.674 41.9517 123.212 42.0795 122.815 42.3352C122.417 42.5862 122.107 42.9176 121.884 43.3295C121.666 43.7367 121.555 44.1842 121.55 44.6719V46.1847C121.55 46.8191 121.666 47.3636 121.898 47.8182C122.13 48.268 122.455 48.6136 122.871 48.8551C123.288 49.0919 123.776 49.2102 124.335 49.2102C124.709 49.2102 125.047 49.1581 125.35 49.054C125.653 48.9451 125.916 48.7865 126.138 48.5781C126.361 48.3698 126.529 48.1117 126.643 47.804L129.043 48.0739C128.892 48.7083 128.603 49.2623 128.177 49.7358C127.755 50.2045 127.216 50.5691 126.558 50.8295C125.899 51.0852 125.147 51.2131 124.299 51.2131ZM136.4 51V36.4545H141.854C142.971 36.4545 143.909 36.6629 144.667 37.0795C145.429 37.4962 146.004 38.0691 146.392 38.7983C146.785 39.5227 146.982 40.3466 146.982 41.2699C146.982 42.2027 146.785 43.0312 146.392 43.7557C145.999 44.4801 145.419 45.0507 144.652 45.4673C143.885 45.8793 142.941 46.0852 141.819 46.0852H138.203V43.919H141.463C142.117 43.919 142.652 43.8054 143.069 43.5781C143.485 43.3509 143.793 43.0384 143.992 42.6406C144.195 42.2429 144.297 41.786 144.297 41.2699C144.297 40.7538 144.195 40.2992 143.992 39.9062C143.793 39.5133 143.483 39.2079 143.061 38.9901C142.645 38.7675 142.107 38.6562 141.449 38.6562H139.034V51H136.4ZM151.728 36.4545V51H149.157V36.4545H151.728ZM157.511 51.2202C156.82 51.2202 156.197 51.0971 155.643 50.8509C155.094 50.5999 154.658 50.2306 154.336 49.7429C154.019 49.2552 153.86 48.6539 153.86 47.9389C153.86 47.3234 153.974 46.8144 154.201 46.4119C154.429 46.0095 154.739 45.6875 155.132 45.446C155.525 45.2045 155.967 45.0223 156.46 44.8991C156.957 44.7713 157.471 44.679 158.001 44.6222C158.64 44.5559 159.159 44.4967 159.556 44.4446C159.954 44.3878 160.243 44.3026 160.423 44.1889C160.608 44.0705 160.7 43.8883 160.7 43.642V43.5994C160.7 43.0644 160.541 42.6501 160.224 42.3565C159.907 42.063 159.45 41.9162 158.853 41.9162C158.224 41.9162 157.724 42.0535 157.355 42.3281C156.99 42.6027 156.744 42.9271 156.616 43.3011L154.216 42.9602C154.405 42.2973 154.717 41.7434 155.153 41.2983C155.589 40.8485 156.121 40.5123 156.751 40.2898C157.381 40.0625 158.077 39.9489 158.839 39.9489C159.365 39.9489 159.888 40.0104 160.409 40.1335C160.93 40.2566 161.405 40.4602 161.836 40.7443C162.267 41.0237 162.613 41.4048 162.873 41.8878C163.138 42.3707 163.271 42.9744 163.271 43.6989V51H160.799V49.5014H160.714C160.558 49.8045 160.338 50.0885 160.054 50.3537C159.774 50.6141 159.422 50.8248 158.995 50.9858C158.574 51.142 158.079 51.2202 157.511 51.2202ZM158.179 49.331C158.695 49.331 159.142 49.2292 159.521 49.0256C159.9 48.8172 160.191 48.5426 160.395 48.2017C160.603 47.8608 160.707 47.4891 160.707 47.0866V45.8011C160.627 45.8674 160.489 45.929 160.295 45.9858C160.106 46.0426 159.893 46.0923 159.656 46.1349C159.419 46.1776 159.185 46.2154 158.953 46.2486C158.721 46.2817 158.52 46.3101 158.349 46.3338C157.966 46.3859 157.622 46.4711 157.319 46.5895C157.016 46.7079 156.777 46.8736 156.602 47.0866C156.427 47.295 156.339 47.5649 156.339 47.8963C156.339 48.3698 156.512 48.7273 156.858 48.9688C157.203 49.2102 157.644 49.331 158.179 49.331ZM167.064 55.0909C166.713 55.0909 166.389 55.0625 166.091 55.0057C165.797 54.9536 165.563 54.892 165.387 54.821L165.984 52.8182C166.358 52.9271 166.692 52.9792 166.985 52.9744C167.279 52.9697 167.537 52.8774 167.76 52.6974C167.987 52.5223 168.179 52.2287 168.335 51.8168L168.555 51.2273L164.599 40.0909H167.326L169.841 48.3295H169.954L172.475 40.0909H175.21L170.842 52.321C170.638 52.8987 170.368 53.3935 170.032 53.8054C169.696 54.2221 169.284 54.5393 168.797 54.7571C168.314 54.9796 167.736 55.0909 167.064 55.0909Z" fill="white"/>
<path d="M61.3928 31.4709V28.1648H62.0391C62.2744 27.9195 62.4915 27.5964 62.6903 27.1953C62.8892 26.791 63.0549 26.2706 63.1875 25.6342C63.3234 24.9946 63.4112 24.1958 63.451 23.2379L63.6548 18.8182H69.4766V28.1648H70.6697V31.446H69.7848V29H62.2777V31.4709H61.3928ZM63.1527 28.1648H68.5916V19.6534H64.5L64.3409 23.2379C64.3045 24.0168 64.2365 24.7112 64.1371 25.321C64.0376 25.9276 63.9051 26.4661 63.7393 26.9368C63.5769 27.4041 63.3814 27.8134 63.1527 28.1648ZM81.0218 23.9091C81.0218 24.9697 80.8329 25.8928 80.4551 26.6783C80.0772 27.4605 79.5569 28.067 78.894 28.4979C78.2344 28.9254 77.4754 29.1392 76.617 29.1392C75.7586 29.1392 74.9979 28.9254 74.335 28.4979C73.6755 28.067 73.1568 27.4605 72.7789 26.6783C72.4044 25.8928 72.2172 24.9697 72.2172 23.9091C72.2172 22.8485 72.4044 21.9271 72.7789 21.1449C73.1568 20.3594 73.6771 19.7528 74.34 19.3253C75.0029 18.8944 75.7619 18.679 76.617 18.679C77.4754 18.679 78.2344 18.8944 78.894 19.3253C79.5569 19.7528 80.0772 20.3594 80.4551 21.1449C80.8329 21.9271 81.0218 22.8485 81.0218 23.9091ZM80.117 23.9091C80.117 22.9976 79.9645 22.2171 79.6596 21.5675C79.3547 20.9145 78.9387 20.4157 78.4118 20.071C77.8848 19.7263 77.2865 19.554 76.617 19.554C75.9508 19.554 75.3542 19.7263 74.8272 20.071C74.3002 20.4157 73.8826 20.9129 73.5744 21.5625C73.2695 22.2121 73.117 22.9943 73.117 23.9091C73.117 24.8205 73.2695 25.6011 73.5744 26.2507C73.8793 26.9003 74.2953 27.3991 74.8223 27.7472C75.3493 28.0919 75.9475 28.2642 76.617 28.2642C77.2865 28.2642 77.8848 28.0919 78.4118 27.7472C78.9421 27.4025 79.3597 26.9053 79.6646 26.2557C79.9695 25.6027 80.1203 24.8205 80.117 23.9091ZM91.2447 22H90.31C90.2404 21.652 90.1145 21.3305 89.9322 21.0355C89.7532 20.7372 89.5278 20.477 89.256 20.255C88.9843 20.0329 88.676 19.8606 88.3313 19.7379C87.9866 19.6153 87.6138 19.554 87.2127 19.554C86.5697 19.554 85.9831 19.7214 85.4528 20.0561C84.9258 20.3909 84.5032 20.883 84.185 21.5327C83.8701 22.179 83.7127 22.9711 83.7127 23.9091C83.7127 24.8537 83.8701 25.6491 84.185 26.2955C84.5032 26.9418 84.9258 27.4323 85.4528 27.767C85.9831 28.0985 86.5697 28.2642 87.2127 28.2642C87.6138 28.2642 87.9866 28.2029 88.3313 28.0803C88.676 27.9576 88.9843 27.7869 89.256 27.5682C89.5278 27.3461 89.7532 27.0859 89.9322 26.7876C90.1145 26.4893 90.2404 26.1662 90.31 25.8182H91.2447C91.1618 26.2855 91.006 26.7214 90.7773 27.1257C90.552 27.5268 90.2636 27.8781 89.9123 28.1797C89.5643 28.4813 89.1632 28.7166 88.7092 28.8857C88.2551 29.0547 87.7563 29.1392 87.2127 29.1392C86.3576 29.1392 85.5986 28.9254 84.9357 28.4979C84.2728 28.067 83.7525 27.4605 83.3746 26.6783C83.0001 25.8961 82.8129 24.973 82.8129 23.9091C82.8129 22.8452 83.0001 21.9221 83.3746 21.1399C83.7525 20.3577 84.2728 19.7528 84.9357 19.3253C85.5986 18.8944 86.3576 18.679 87.2127 18.679C87.7563 18.679 88.2551 18.7635 88.7092 18.9325C89.1632 19.0982 89.5643 19.3336 89.9123 19.6385C90.2636 19.9401 90.552 20.2914 90.7773 20.6925C91.006 21.0935 91.1618 21.5294 91.2447 22ZM92.812 19.6534V18.8182H100.195V19.6534H96.9682V29H96.0385V19.6534H92.812ZM102.641 29.1392V28.2692H103.148C103.433 28.2692 103.67 28.2244 103.859 28.1349C104.051 28.0421 104.21 27.9145 104.336 27.7521C104.465 27.5864 104.576 27.3925 104.669 27.1705L104.838 26.7628L101.333 18.8182H102.333L105.306 25.6392L108.05 18.8182H109.034L105.519 27.4489C105.377 27.7869 105.214 28.0836 105.032 28.3388C104.853 28.5907 104.618 28.7879 104.326 28.9304C104.035 29.0696 103.65 29.1392 103.173 29.1392H102.641ZM118.042 18.8182V29H117.117V19.6534H111.633V29H110.703V18.8182H118.042ZM120.676 29V18.8182H121.606V23.4865H127.383V18.8182H128.313V29H127.383V24.3217H121.606V29H120.676ZM139.36 23.9091C139.36 24.9697 139.171 25.8928 138.793 26.6783C138.415 27.4605 137.895 28.067 137.232 28.4979C136.572 28.9254 135.813 29.1392 134.955 29.1392C134.096 29.1392 133.336 28.9254 132.673 28.4979C132.013 28.067 131.495 27.4605 131.117 26.6783C130.742 25.8928 130.555 24.9697 130.555 23.9091C130.555 22.8485 130.742 21.9271 131.117 21.1449C131.495 20.3594 132.015 19.7528 132.678 19.3253C133.341 18.8944 134.1 18.679 134.955 18.679C135.813 18.679 136.572 18.8944 137.232 19.3253C137.895 19.7528 138.415 20.3594 138.793 21.1449C139.171 21.9271 139.36 22.8485 139.36 23.9091ZM138.455 23.9091C138.455 22.9976 138.302 22.2171 137.998 21.5675C137.693 20.9145 137.277 20.4157 136.75 20.071C136.223 19.7263 135.624 19.554 134.955 19.554C134.289 19.554 133.692 19.7263 133.165 20.071C132.638 20.4157 132.221 20.9129 131.912 21.5625C131.607 22.2121 131.455 22.9943 131.455 23.9091C131.455 24.8205 131.607 25.6011 131.912 26.2507C132.217 26.9003 132.633 27.3991 133.16 27.7472C133.687 28.0919 134.285 28.2642 134.955 28.2642C135.624 28.2642 136.223 28.0919 136.75 27.7472C137.28 27.4025 137.698 26.9053 138.002 26.2557C138.307 25.6027 138.458 24.8205 138.455 23.9091ZM145.546 29V18.8182H148.981C149.644 18.8182 150.196 18.9342 150.637 19.1662C151.081 19.3982 151.414 19.7147 151.636 20.1158C151.858 20.5168 151.969 20.9725 151.969 21.483C151.969 21.9072 151.898 22.2701 151.755 22.5717C151.613 22.8733 151.419 23.117 151.173 23.3026C150.928 23.4882 150.655 23.6224 150.353 23.7053V23.7848C150.681 23.808 150.999 23.924 151.308 24.1328C151.616 24.3383 151.869 24.6267 152.068 24.9979C152.267 25.3691 152.367 25.8132 152.367 26.3303C152.367 26.844 152.252 27.303 152.024 27.7074C151.795 28.1084 151.444 28.425 150.97 28.657C150.499 28.8857 149.899 29 149.17 29H145.546ZM146.475 28.1648H149.17C149.955 28.1648 150.535 27.9908 150.91 27.6428C151.288 27.2947 151.477 26.8572 151.477 26.3303C151.477 25.9425 151.382 25.5911 151.193 25.2763C151.008 24.9581 150.744 24.7062 150.403 24.5206C150.065 24.335 149.667 24.2422 149.21 24.2422H146.475V28.1648ZM146.475 23.4169H149.066C149.467 23.4169 149.818 23.334 150.119 23.1683C150.421 23.0026 150.656 22.7739 150.825 22.4822C150.994 22.1906 151.079 21.8575 151.079 21.483C151.079 20.9427 150.903 20.5036 150.552 20.1655C150.201 19.8241 149.677 19.6534 148.981 19.6534H146.475V23.4169Z" fill="white"/>
<path fill-rule="evenodd" clip-rule="evenodd" d="M20.4907 21.566C20.1791 21.9009 20 22.4163 20 23.0861V46.9096C20 47.5793 20.1791 48.0948 20.5023 48.418L20.5868 48.4893L33.9356 35.1405V34.8406L20.5751 21.4946L20.4907 21.566Z" fill="#D2D2D2"/>
<path fill-rule="evenodd" clip-rule="evenodd" d="M38.3765 39.6075L33.924 35.1535V34.8419L38.3779 30.3879L38.474 30.4476L43.7419 33.4412C45.2504 34.2915 45.2504 35.6922 43.7419 36.5542L38.474 39.5478C38.4726 39.5478 38.3765 39.6075 38.3765 39.6075Z" fill="white"/>
<path fill-rule="evenodd" clip-rule="evenodd" d="M38.4733 39.5479L33.9247 34.9978L20.4914 48.4311C20.982 48.9582 21.8076 49.0179 22.7307 48.5024L38.4733 39.5479Z" fill="#EAEAEA"/>
<path fill-rule="evenodd" clip-rule="evenodd" d="M38.4733 30.4491L22.7307 21.5062C21.8091 20.9791 20.982 21.0505 20.4914 21.5776L33.9232 34.9977L38.4733 30.4491Z" fill="#EAEAEA"/>
<path opacity="0.2" fill-rule="evenodd" clip-rule="evenodd" d="M38.3766 39.4517L22.7418 48.3349C21.8682 48.8372 21.0892 48.8023 20.5869 48.3465L20.5024 48.431L20.5869 48.5023C21.0892 48.9566 21.8682 48.993 22.7418 48.4907L38.4844 39.5478L38.3766 39.4517Z" fill="black"/>
<path opacity="0.12" fill-rule="evenodd" clip-rule="evenodd" d="M43.7404 36.3985L38.3648 39.4518L38.4609 39.5479L43.7288 36.5543C44.483 36.1233 44.8543 35.5613 44.8543 34.9978C44.8062 35.5132 44.4233 36.0039 43.7404 36.3985Z" fill="black"/>
<path opacity="0.25" fill-rule="evenodd" clip-rule="evenodd" d="M22.73 21.662L43.7405 33.5985C44.4234 33.9814 44.8063 34.4838 44.866 34.9992C44.866 34.4372 44.4947 33.8737 43.7405 33.4427L22.73 21.5062C21.2216 20.6442 20 21.3621 20 23.086V23.2418C20 21.5179 21.2216 20.8117 22.73 21.662Z" fill="white"/>
</svg>
