<svg width="39" height="41" viewBox="0 0 39 41" fill="none" xmlns="http://www.w3.org/2000/svg">
<path d="M6.66146 6.49768C6.02794 6.97024 5.65359 7.62001 5.88396 7.91536C6.11433 8.24024 6.80545 8.09257 7.43897 7.64954C8.0725 7.17698 8.44685 6.52722 8.21648 6.23187C8.0149 5.87745 7.32379 6.02512 6.66146 6.49768ZM30.7354 4.9914L30.505 4.66652L29.6699 4.9028L29.9867 5.37535L30.7354 4.9914ZM31.2537 5.31628L31.6569 4.69605C31.6569 4.69605 31.0521 3.78047 30.9657 3.30791C30.8794 2.83535 31.2249 2.18558 31.2537 2.18558L30.361 1.50628C30.361 1.50628 29.9579 2.59907 30.3322 3.69186C30.7066 4.78466 31.2537 5.31628 31.2537 5.31628ZM30.1306 1.35861L28.3741 0L28.2877 0.561164L29.9579 2.03791L30.1306 1.35861ZM8.85 1.38814C8.0437 0.23628 5.48081 0.679303 3.09069 2.42186C0.729377 4.13489 -0.566467 6.49768 0.239837 7.64954C1.04614 8.80141 3.60903 8.35838 5.99914 6.61582C8.38926 4.87326 9.6563 2.54 8.85 1.38814ZM1.76605 6.8521C1.3629 6.2614 1.67966 5.28675 2.48597 4.34163C2.86032 3.89861 3.81061 3.81 4.27135 3.98721C4.21376 3.42605 4.90488 2.42186 5.39442 2.21512C6.57507 1.74256 7.61175 1.74256 8.0149 2.33326C8.59083 3.16024 7.66934 4.87326 5.94155 6.11373C4.21376 7.35419 2.34198 7.70861 1.76605 6.8521ZM30.4186 4.51884L30.2458 4.22349L29.2092 4.19396L29.4971 4.75512L30.4186 4.51884ZM31.1097 5.46396L30.8794 5.22768L30.1594 5.55256L30.793 6.08419L31.1097 5.46396ZM32.3192 7.29512C32.3768 7.23605 32.8087 6.64536 33.5574 5.93652C34.3061 5.22768 35.3716 4.51884 35.3716 4.51884C35.3716 4.51884 34.7093 3.83954 34.0758 3.27838C33.4422 2.71721 32.7223 2.39233 32.7223 2.39233C32.7223 2.39233 32.4056 3.39652 32.0888 4.01675C31.8008 4.63698 30.8794 6.23187 30.8794 6.23187C31.1961 6.37954 31.8296 6.49768 32.3192 7.29512ZM30.1882 4.07582L30.1306 3.78047L28.9212 3.36698L29.1516 3.98721L30.1882 4.07582ZM32.5783 2.09698C32.5783 2.09698 33.2695 2.21512 34.2485 3.10117C35.2276 3.98721 35.5732 4.51884 35.5732 4.51884C35.5732 4.51884 35.8324 4.57791 36.0627 4.4007C36.2931 4.22349 36.2067 3.86907 36.2067 3.86907C36.2067 3.86907 35.7748 3.24884 34.7381 2.33326C34.1046 1.91977 33.5286 1.56535 32.9239 1.38814C32.8087 1.44721 32.7511 1.35861 32.6071 1.68349C32.4632 2.00837 32.5783 2.09698 32.5783 2.09698ZM35.0261 6.58629C34.5365 6.61582 33.5286 6.20233 33.5286 6.20233L33.0103 6.73396C33.0103 6.73396 33.6438 7.17698 34.7669 7.29512C35.89 7.41326 36.8402 6.7635 36.8402 6.7635L35.9763 6.02512C36.0339 6.05466 35.5156 6.55675 35.0261 6.58629ZM28.3741 0.974653L28.4316 1.74256L29.9579 2.83535L29.9003 2.27419L28.3741 0.974653ZM30.0731 3.51466L29.9867 3.0421L28.518 2.18558L28.8348 3.18977L30.0731 3.51466ZM31.4841 6.82257C30.793 6.35001 30.0731 6.2614 29.8715 6.58629C29.6699 6.91117 30.0443 7.56094 30.7066 8.0335C31.3977 8.50606 32.1176 8.59466 32.3192 8.26978C32.5496 7.91536 32.1752 7.26559 31.4841 6.82257ZM32.4056 7.38373L33.0967 7.88582L33.2119 7.11792L32.9239 6.94071L32.4056 7.38373ZM34.4789 7.5314L34.7957 8.56513L35.4292 8.65373L34.7669 7.5314H34.4789ZM29.6411 10.8098C29.8715 10.4554 30.9369 8.91955 31.1673 8.59466C30.5914 8.38792 30.2458 8.1221 29.8427 7.67908C29.5547 8.06303 28.2877 9.74652 28.0285 10.1009C25.0337 8.68327 22.0964 6.49768 19.6775 3.1307C16.913 6.46815 14.235 9.09675 10.5778 10.5144L8.21648 7.32466C7.84212 7.82675 7.49656 8.00396 7.12221 8.15164L9.19556 10.987C8.64843 11.1642 8.21648 11.2528 7.61175 11.3709C7.2374 16.7168 8.61963 20.2314 10.0019 23.244C9.22436 24.6321 8.70602 26.0203 8.67722 27.2607C8.64843 28.1763 8.93639 28.8851 9.36834 29.4168C8.50444 29.5349 7.66934 29.8007 7.00702 30.3914C6.71906 30.6277 6.51748 30.9526 6.4023 31.307C5.99914 31.307 5.59599 31.3956 5.22164 31.5433C3.8682 32.0749 3.17708 33.4631 3.40746 34.9103C3.63783 36.5052 4.93367 37.657 6.25831 38.4249C9.59871 40.3447 13.6302 40.9354 17.4026 40.9945C21.4341 41.0535 25.8112 40.6696 29.3243 38.3954C29.5547 38.2477 29.3531 37.8638 29.1228 38.0114C26.5311 39.6949 23.4498 40.3152 20.4262 40.4924C17.2586 40.6991 14.0046 40.5219 10.9234 39.754C9.39714 39.37 7.87092 38.8384 6.51748 38.041C5.33682 37.3617 4.12737 36.3575 3.897 34.9103C3.63783 33.5221 4.38654 32.1931 5.76877 31.8386C5.97035 31.7796 6.20072 31.75 6.4023 31.75C6.4023 31.8977 6.4023 32.0158 6.43109 32.1635C6.60387 32.9314 7.2086 33.7289 7.87092 34.0833C8.41805 34.3786 9.13797 34.3786 9.62751 33.9652C10.117 33.5517 10.0883 32.9019 9.6851 32.4293C9.16676 31.8386 8.27407 31.5138 7.52536 31.3956C7.32379 31.3661 7.12221 31.3365 6.92063 31.307C6.97823 31.1593 7.06462 31.0412 7.1798 30.8935C7.84212 30.1552 8.79241 29.8893 9.80029 29.8007C10.7506 30.7458 12.0752 31.0707 12.5072 31.0412L10.5202 33.9061L11.5857 34.8512L15.2428 29.9779C16.6539 31.307 18.1801 32.3703 19.8215 33.4335C21.3189 32.4293 22.8163 31.4251 24.1698 30.1256L28.0861 34.7921C28.6044 34.5559 28.8348 34.2605 29.094 33.8765L25.1488 29.0919C25.3216 28.8851 25.5232 28.6784 25.696 28.4421C25.6096 26.1384 26.4159 23.3917 29.3531 23.4507C30.793 19.8475 32.3192 16.1851 31.772 11.4005C30.9657 11.2823 30.3034 11.0756 29.6411 10.8098ZM7.84212 31.9272C8.36046 32.0749 9.59871 32.5179 9.48353 33.2858C9.42593 33.6993 8.93639 33.8765 8.59083 33.8765C8.13009 33.8765 7.75573 33.6107 7.43897 33.2858C7.03582 32.8428 6.71906 32.3112 6.74785 31.75C7.12221 31.75 7.49656 31.8386 7.84212 31.9272ZM15.1276 24.6321H14.7821C14.4941 24.6321 14.2638 24.2482 14.2638 23.9528C14.2638 23.5689 14.5229 23.2735 14.8685 23.2735C15.358 23.2735 15.6172 23.5393 15.6172 24.0414C15.646 24.2482 15.358 24.6321 15.1276 24.6321ZM28.806 22.7714C27.251 22.8896 26.0991 24.1596 25.4656 25.5477L25.4944 20.2905H21.1461V23.244H23.1907V25.6068H25.408C25.0049 26.5519 24.8321 27.5561 24.8609 28.4126C23.0755 30.3914 21.5493 31.3661 19.6199 32.6952C18.0937 31.6614 16.8554 30.7754 15.5884 29.594C15.6172 29.5644 15.646 29.5349 15.6748 29.5054L19.8791 23.2735H20.4838V22.2103C20.5414 22.0921 20.6278 21.974 20.6854 21.8558C20.6278 21.7377 20.5702 21.6196 20.4838 21.4719V20.2905H19.9655C19.9079 20.0837 19.8503 19.877 19.8503 19.6703V18.991C19.8503 17.9868 20.1958 17.0712 20.3686 16.1556C20.4262 15.8898 20.6278 15.2105 20.743 14.8856C20.7718 14.7675 21.0309 14.2063 21.1461 13.9109V16.2147H24.0258V13.2612H21.6933C21.6933 13.1135 21.5493 12.9954 21.4053 12.9954C21.2613 12.9954 21.1461 13.1135 21.1173 13.2612V13.6451L21.0885 13.6156L15.646 22.5942L15.502 22.5056L21.0021 13.4975L20.9733 13.4089L20.455 13.9405L18.0937 16.1851C17.5754 16.5396 17.2586 16.8054 16.9418 16.9826V16.7463H14.0622V17.4847H13.9758C12.9967 18.8728 11.5569 20.6744 10.405 22.5351C9.10917 19.6703 8.0437 16.9826 8.24527 11.9321C12.9967 10.7802 16.5099 8.21071 19.6487 4.16442C22.7875 8.59466 27.1358 10.8393 31.0233 12.0207C31.2537 16.5691 30.1594 19.5226 28.806 22.7714ZM35.0549 7.5314L35.6308 8.68327L36.6387 8.77187L35.5156 7.50187L35.0549 7.5314ZM33.2695 8.06303L33.759 8.26978L33.7878 7.35419L33.4422 7.20652L33.2695 8.06303ZM33.9894 7.38373V8.35838L34.5653 8.50606L34.3061 7.47233L33.9894 7.38373ZM35.7172 7.4428L37.0994 8.7128L37.8193 8.59466L36.2355 7.35419L35.7172 7.4428ZM14.0334 16.2147H16.913V13.2612H14.0334V16.2147ZM28.8348 30.4505L28.2013 29.6235L28.7196 29.1214L27.7981 27.94L27.2222 28.5012L27.6541 29.1214L26.9918 29.6531L26.5023 29.1214L25.9551 29.594L28.4892 32.6656L29.0076 32.2226L28.5468 31.6614L29.2092 31.0707L29.7563 31.6319L30.2746 31.1593L29.3819 30.0961L28.8348 30.4505ZM21.1461 12.7H24.0258V9.74652H21.1461V12.7ZM37.013 6.91117L36.4083 7.26559L38.2513 8.59466L38.7408 8.38792L37.013 6.91117ZM21.1461 19.7293H24.0258V16.7758H21.1461V19.7293ZM14.0334 12.7H16.913V9.74652H14.0334V12.7Z" fill="#808181"/>
</svg>
