<svg width="237" height="70" viewBox="0 0 237 70" fill="none" xmlns="http://www.w3.org/2000/svg">
<path d="M227.518 70H8.74086C3.94984 70 0 66.0502 0 61.2591V8.74086C0 3.91327 3.94984 0 8.74086 0H227.482C232.309 0 236.223 3.94984 236.223 8.74086V61.2591C236.259 66.0502 232.309 70 227.518 70Z" fill="#12100B"/>
<path d="M227.518 1.38976C231.578 1.38976 234.869 4.6813 234.869 8.74086V61.2591C234.869 65.3187 231.578 68.6102 227.518 68.6102H8.74086C4.6813 68.6102 1.38976 65.3187 1.38976 61.2591V8.74086C1.38976 4.6813 4.6813 1.38976 8.74086 1.38976H227.518ZM227.518 0H8.74086C3.94984 0 0 3.94984 0 8.74086V61.2591C0 66.0867 3.94984 70 8.74086 70H227.482C232.309 70 236.223 66.0502 236.223 61.2591V8.74086C236.259 3.94984 232.309 0 227.518 0Z" fill="#AFACAB"/>
<path d="M119.227 38.0721C115.094 38.0721 111.766 41.2173 111.766 45.5329C111.766 49.8119 115.131 52.9937 119.227 52.9937C123.359 52.9937 126.688 49.8484 126.688 45.5329C126.724 41.1807 123.359 38.0721 119.227 38.0721ZM119.227 50.0313C116.959 50.0313 115.021 48.1661 115.021 45.5329C115.021 42.8631 116.959 41.0344 119.227 41.0344C121.494 41.0344 123.433 42.8631 123.433 45.5329C123.433 48.1661 121.494 50.0313 119.227 50.0313ZM102.952 38.0721C98.8192 38.0721 95.4911 41.2173 95.4911 45.5329C95.4911 49.8119 98.8558 52.9937 102.952 52.9937C107.085 52.9937 110.413 49.8484 110.413 45.5329C110.413 41.1807 107.048 38.0721 102.952 38.0721ZM102.952 50.0313C100.684 50.0313 98.7461 48.1661 98.7461 45.5329C98.7461 42.8631 100.684 41.0344 102.952 41.0344C105.219 41.0344 107.158 42.8631 107.158 45.5329C107.158 48.1661 105.183 50.0313 102.952 50.0313ZM83.5684 40.3396V43.4848H91.139C90.9195 45.2769 90.3344 46.5569 89.42 47.4712C88.3229 48.5684 86.604 49.7753 83.5684 49.7753C78.9237 49.7753 75.2664 46.0449 75.2664 41.3636C75.2664 36.7189 78.8871 32.9519 83.5684 32.9519C86.0919 32.9519 87.9206 33.9393 89.2738 35.2194L91.5047 32.9885C89.6029 31.1964 87.116 29.8066 83.5684 29.8066C77.2048 29.8066 71.8286 34.9999 71.8286 41.3636C71.8286 47.7272 77.1682 52.9205 83.5684 52.9205C87.0063 52.9205 89.6029 51.7868 91.6144 49.6656C93.699 47.5809 94.3574 44.6551 94.3574 42.2779C94.3574 41.5464 94.2842 40.8516 94.1745 40.303H83.5684V40.3396ZM162.858 42.7899C162.236 41.1076 160.334 38.0355 156.494 38.0355C152.654 38.0355 149.472 41.0344 149.472 45.4963C149.472 49.6656 152.618 52.9571 156.86 52.9571C160.261 52.9571 162.236 50.8725 163.077 49.6656L160.554 47.9832C159.713 49.2267 158.542 50.0313 156.897 50.0313C155.251 50.0313 154.044 49.2633 153.276 47.7638L163.224 43.6311L162.858 42.7899ZM152.691 45.2769C152.618 42.3876 154.922 40.9247 156.567 40.9247C157.884 40.9247 158.981 41.583 159.347 42.4973L152.691 45.2769ZM144.608 52.5182H147.863V30.6112H144.608V52.5182ZM139.232 39.7178H139.122C138.391 38.8401 136.964 38.0355 135.209 38.0355C131.479 38.0355 128.077 41.2904 128.077 45.4963C128.077 49.6656 131.479 52.9205 135.209 52.9205C137.001 52.9205 138.391 52.1159 139.122 51.2382H139.232V52.2988C139.232 55.1515 137.696 56.6509 135.246 56.6509C133.234 56.6509 131.991 55.2246 131.479 54.0177L128.626 55.188C129.431 57.163 131.625 59.5768 135.209 59.5768C139.049 59.5768 142.304 57.3093 142.304 51.8234V38.4744H139.195V39.7178H139.232ZM135.502 50.0313C133.234 50.0313 131.369 48.1295 131.369 45.5329C131.369 42.8996 133.271 40.9979 135.502 40.9979C137.732 40.9979 139.488 42.8996 139.488 45.5329C139.488 48.1295 137.732 50.0313 135.502 50.0313ZM178.182 30.6112H170.355V52.4817H173.61V44.1797H178.182C181.803 44.1797 185.35 41.5465 185.35 37.3772C185.35 33.2445 181.803 30.6112 178.182 30.6112ZM178.255 41.1807H173.61V33.6833H178.255C180.705 33.6833 182.095 35.6948 182.095 37.4503C182.095 39.0961 180.705 41.1807 178.255 41.1807ZM198.443 38.0355C196.066 38.0355 193.615 39.0595 192.628 41.4002L195.517 42.6071C196.139 41.4002 197.273 40.9979 198.516 40.9979C200.199 40.9979 201.917 42.0219 201.954 43.814V44.0334C201.369 43.7042 200.089 43.1922 198.553 43.1922C195.444 43.1922 192.262 44.9111 192.262 48.1295C192.262 51.0553 194.822 52.9571 197.712 52.9571C199.906 52.9571 201.113 51.9697 201.881 50.8359H201.991V52.5182H205.136V44.1431C205.063 40.1933 202.173 38.0355 198.443 38.0355ZM198.041 50.0313C196.98 50.0313 195.481 49.4827 195.481 48.1661C195.481 46.4838 197.346 45.8255 198.955 45.8255C200.381 45.8255 201.076 46.118 201.954 46.5569C201.661 48.5684 199.906 50.0313 198.041 50.0313ZM216.546 38.5109L212.816 47.9832H212.706L208.83 38.5109H205.319L211.134 51.7502L207.806 59.1379H211.207L220.204 38.5109H216.546ZM187.142 52.5182H190.397V30.6112H187.142V52.5182V52.5182Z" fill="white"/>
<path d="M36.2435 33.976L17.628 53.7617C18.2132 55.9195 20.1515 57.4922 22.4921 57.4922C23.4065 57.4922 24.2842 57.2361 25.0522 56.7973L25.1254 56.7607L46.0815 44.6552L36.2435 33.976Z" fill="#E43629"/>
<path d="M55.115 30.6113L46.0449 25.3448L35.8412 34.4514L46.0815 44.6918L55.0784 39.4985C56.651 38.6573 57.7116 36.9749 57.7116 35.0732C57.7116 33.1348 56.6876 31.489 55.115 30.6113Z" fill="#F9BD00"/>
<path d="M17.6281 16.2383C17.5183 16.6406 17.4452 17.0795 17.4452 17.5183V52.4818C17.4452 52.9206 17.5183 53.3595 17.6281 53.7618L36.9018 34.488L17.6281 16.2383Z" fill="#587DBE"/>
<path d="M36.3897 34.9999L46.0449 25.3448L25.0888 13.2026C24.3208 12.7638 23.443 12.4712 22.4921 12.4712C20.1515 12.4712 18.2132 14.0438 17.628 16.2016L36.3897 34.9999Z" fill="#30A043"/>
<path d="M75.3762 22.4922C74.4985 21.9802 73.8401 21.3218 73.3281 20.4441C72.8161 19.5664 72.5967 18.6155 72.5967 17.5549C72.5967 16.4943 72.8527 15.5434 73.3281 14.6656C73.8401 13.7879 74.4985 13.093 75.3762 12.6176C76.2539 12.1055 77.2048 11.8861 78.2654 11.8861C79.9112 11.8861 81.2278 12.4713 82.2884 13.6782L81.1181 14.8119C80.7524 14.373 80.3135 14.0439 79.8746 13.8245C79.3992 13.605 78.8872 13.4953 78.2654 13.4953C77.534 13.4953 76.8391 13.6782 76.2539 14.0073C75.6322 14.3365 75.1568 14.8119 74.791 15.4702C74.4253 16.092 74.2424 16.8234 74.2424 17.628C74.2424 18.4326 74.4253 19.1641 74.791 19.7858C75.1568 20.4075 75.6322 20.883 76.2539 21.2487C76.8757 21.5779 77.534 21.7607 78.2654 21.7607C79.5089 21.7607 80.5329 21.2487 81.3741 20.2247L82.581 21.395C82.069 22.0167 81.4107 22.4922 80.6792 22.8579C79.9478 23.1871 79.1432 23.3699 78.2289 23.3699C77.2048 23.2236 76.2539 22.9676 75.3762 22.4922Z" fill="white"/>
<path d="M84.4827 12.069H86.1651V17.3354H86.2382L90.5904 12.069H92.675V12.1787L88.0668 17.628L92.8944 22.8945V23.0042H90.7001L86.2016 17.9937H86.1285V23.0042H84.4827V12.069Z" fill="white"/>
<path d="M98.0878 12.069H99.9896L104.122 22.9676H102.294L101.306 20.1515H96.8443L95.8569 22.9676H94.0283L98.0878 12.069ZM100.721 18.6155L99.5142 15.2874L99.1119 14.0439H99.0021L98.5998 15.2874L97.3929 18.6155H100.721Z" fill="white"/>
<path d="M110.413 18.14C109.718 18.7252 108.913 19.0543 107.889 19.0543C107.231 19.0543 106.646 18.9081 106.097 18.652C105.549 18.396 105.146 17.9937 104.854 17.4817C104.561 16.9697 104.415 16.3845 104.415 15.6897V12.1055H106.097V15.3971C106.097 16.0554 106.28 16.5674 106.682 16.9331C107.085 17.2989 107.597 17.4817 108.218 17.4817C109.096 17.4817 109.828 17.1526 110.413 16.4577V12.069H112.059V22.9676H110.413V18.14V18.14Z" fill="white"/>
<path d="M117.654 12.069H119.556L123.689 22.9676H121.86L120.873 20.1515H116.411L115.423 22.9676H113.595L117.654 12.069ZM120.287 18.6155L119.08 15.2874L118.678 14.0439H118.568L118.166 15.2874L116.959 18.6155H120.287Z" fill="white"/>
<path d="M126.505 13.6781H123.433V12.1055H131.223V13.6781H128.187V23.0041H126.505V13.6781Z" fill="white"/>
<path d="M132.978 12.069H134.66V15.9457H136.965C137.659 15.9457 138.281 16.092 138.866 16.348C139.451 16.6405 139.89 17.0428 140.256 17.5549C140.585 18.1035 140.768 18.7252 140.768 19.4201C140.768 20.1149 140.585 20.7367 140.256 21.2853C139.927 21.8339 139.451 22.2362 138.866 22.5287C138.281 22.8213 137.659 22.9676 136.965 22.9676H132.978V12.069V12.069ZM137.074 21.4316C137.477 21.4316 137.806 21.3218 138.135 21.1756C138.427 20.9927 138.683 20.7367 138.83 20.4441C138.976 20.1515 139.086 19.8224 139.086 19.4932C139.086 19.1641 139.013 18.8349 138.83 18.5423C138.683 18.2497 138.427 17.9937 138.135 17.8109C137.842 17.628 137.477 17.5183 137.074 17.5183H134.624V21.4316H137.074V21.4316Z" fill="white"/>
<path d="M146.144 12.069H147.79V18.1035L147.717 20.1881H147.79L152.691 12.069H154.593V22.9676H152.947V16.7868L153.056 14.7022H152.947L147.973 22.9676H146.144V12.069V12.069Z" fill="white"/>
<path d="M157.884 22.5286C157.189 22.0532 156.714 21.3583 156.458 20.444L157.994 19.8223C158.14 20.4074 158.396 20.8463 158.762 21.1755C159.128 21.5046 159.603 21.6509 160.115 21.6509C160.664 21.6509 161.139 21.468 161.541 21.1389C161.944 20.7732 162.126 20.3709 162.126 19.8223C162.126 19.4931 162.017 19.164 161.834 18.908C161.651 18.6154 161.395 18.3959 161.029 18.2496C160.7 18.1034 160.334 17.9936 159.932 17.9936H159.018V16.5307H159.822C160.371 16.5307 160.81 16.3844 161.176 16.0919C161.541 15.7993 161.724 15.397 161.724 14.885C161.724 14.4461 161.541 14.0804 161.212 13.7878C160.883 13.4952 160.444 13.3489 159.932 13.3489C159.493 13.3489 159.091 13.4952 158.762 13.7512C158.433 14.0072 158.213 14.3364 158.103 14.7387L156.641 14.1169C156.86 13.5318 157.226 12.9832 157.811 12.5077C158.359 12.0323 159.091 11.8129 159.932 11.8129C160.59 11.8129 161.176 11.9592 161.688 12.2152C162.2 12.4712 162.602 12.8369 162.894 13.2758C163.187 13.7146 163.333 14.2267 163.333 14.8118C163.333 15.8724 162.858 16.6405 161.944 17.1525V17.2622C162.456 17.4816 162.894 17.8474 163.224 18.2862C163.553 18.7251 163.699 19.2737 163.699 19.932C163.699 20.5537 163.553 21.1023 163.224 21.6143C162.894 22.1263 162.456 22.5286 161.907 22.8212C161.358 23.1138 160.737 23.2601 160.042 23.2601C159.31 23.2235 158.579 23.0041 157.884 22.5286Z" fill="white"/>
</svg>
