<svg width="105" height="105" viewBox="0 0 105 105" fill="none" xmlns="http://www.w3.org/2000/svg">
<path d="M21 3.5V40.25H3.5C3.03587 40.25 2.59075 40.0656 2.26256 39.7374C1.93438 39.4093 1.75 38.9641 1.75 38.5V10.5C1.71485 9.34141 1.91714 8.18788 2.34443 7.11038C2.77172 6.03288 3.41496 5.05421 4.23459 4.23459C5.05421 3.41496 6.03288 2.77172 7.11038 2.34443C8.18788 1.91714 9.34141 1.71485 10.5 1.75H12.25L21 3.5Z" fill="#D5D8DB"/>
<path d="M85.7501 10.4995V58.362L58.8001 87.342L53.4451 90.7195C53.166 90.8995 52.8409 90.9953 52.5088 90.9953C52.1767 90.9953 51.8517 90.8995 51.5726 90.7195L45.1501 86.6595C44.871 86.4795 44.5459 86.3837 44.2138 86.3837C43.8817 86.3837 43.5567 86.4795 43.2776 86.6595L36.8201 90.737C36.5412 90.9087 36.2201 90.9996 35.8926 90.9996C35.5651 90.9996 35.244 90.9087 34.9651 90.737L28.5076 86.6595C28.2285 86.4795 27.9034 86.3837 27.5713 86.3837C27.2392 86.3837 26.9142 86.4795 26.6351 86.6595L21.9276 89.617C21.6646 89.7868 21.3606 89.8823 21.0478 89.8934C20.735 89.9045 20.425 89.8309 20.1506 89.6802C19.8762 89.5296 19.6476 89.3076 19.4891 89.0377C19.3306 88.7678 19.248 88.46 19.2501 88.147V10.867C19.2857 8.64639 18.4996 6.49093 17.0429 4.81455C15.5861 3.13817 13.5614 2.05907 11.3576 1.7845C11.0786 1.75537 10.798 1.74368 10.5176 1.7495H77.0001C79.3207 1.7495 81.5463 2.67137 83.1873 4.31231C84.8282 5.95325 85.7501 8.17885 85.7501 10.4995Z" fill="#F0F1F2"/>
<path d="M80.5 103.25C93.0645 103.25 103.25 93.0645 103.25 80.5C103.25 67.9355 93.0645 57.75 80.5 57.75C67.9355 57.75 57.75 67.9355 57.75 80.5C57.75 93.0645 67.9355 103.25 80.5 103.25Z" fill="#4CAF50"/>
<path d="M77 38.5H28C27.5359 38.5 27.0908 38.3156 26.7626 37.9874C26.4344 37.6592 26.25 37.2141 26.25 36.75C26.25 36.2859 26.4344 35.8408 26.7626 35.5126C27.0908 35.1844 27.5359 35 28 35H77C77.4641 35 77.9092 35.1844 78.2374 35.5126C78.5656 35.8408 78.75 36.2859 78.75 36.75C78.75 37.2141 78.5656 37.6592 78.2374 37.9874C77.9092 38.3156 77.4641 38.5 77 38.5Z" fill="#505068"/>
<path d="M52.5 73.5H28C27.5359 73.5 27.0908 73.3156 26.7626 72.9874C26.4344 72.6592 26.25 72.2141 26.25 71.75C26.25 71.2859 26.4344 70.8408 26.7626 70.5126C27.0908 70.1844 27.5359 70 28 70H52.5C52.9641 70 53.4093 70.1844 53.7374 70.5126C54.0656 70.8408 54.25 71.2859 54.25 71.75C54.25 72.2141 54.0656 72.6592 53.7374 72.9874C53.4093 73.3156 52.9641 73.5 52.5 73.5Z" fill="#505068"/>
<path d="M33.25 47.25H28C27.5359 47.25 27.0908 47.0656 26.7626 46.7374C26.4344 46.4092 26.25 45.9641 26.25 45.5C26.25 45.0359 26.4344 44.5908 26.7626 44.2626C27.0908 43.9344 27.5359 43.75 28 43.75H33.25C33.7141 43.75 34.1592 43.9344 34.4874 44.2626C34.8156 44.5908 35 45.0359 35 45.5C35 45.9641 34.8156 46.4092 34.4874 46.7374C34.1592 47.0656 33.7141 47.25 33.25 47.25Z" fill="#B5B8BC"/>
<path d="M70 47.25H40.25C39.7859 47.25 39.3408 47.0656 39.0126 46.7374C38.6844 46.4092 38.5 45.9641 38.5 45.5C38.5 45.0359 38.6844 44.5908 39.0126 44.2626C39.3408 43.9344 39.7859 43.75 40.25 43.75H70C70.4641 43.75 70.9093 43.9344 71.2374 44.2626C71.5656 44.5908 71.75 45.0359 71.75 45.5C71.75 45.9641 71.5656 46.4092 71.2374 46.7374C70.9093 47.0656 70.4641 47.25 70 47.25Z" fill="#B5B8BC"/>
<path d="M33.25 56H28C27.5359 56 27.0908 55.8156 26.7626 55.4874C26.4344 55.1592 26.25 54.7141 26.25 54.25C26.25 53.7859 26.4344 53.3408 26.7626 53.0126C27.0908 52.6844 27.5359 52.5 28 52.5H33.25C33.7141 52.5 34.1592 52.6844 34.4874 53.0126C34.8156 53.3408 35 53.7859 35 54.25C35 54.7141 34.8156 55.1592 34.4874 55.4874C34.1592 55.8156 33.7141 56 33.25 56Z" fill="#B5B8BC"/>
<path d="M68.25 56H40.25C39.7859 56 39.3408 55.8156 39.0126 55.4874C38.6844 55.1592 38.5 54.7141 38.5 54.25C38.5 53.7859 38.6844 53.3408 39.0126 53.0126C39.3408 52.6844 39.7859 52.5 40.25 52.5H68.25C68.7141 52.5 69.1593 52.6844 69.4874 53.0126C69.8156 53.3408 70 53.7859 70 54.25C70 54.7141 69.8156 55.1592 69.4874 55.4874C69.1593 55.8156 68.7141 56 68.25 56Z" fill="#B5B8BC"/>
<path d="M33.25 64.75H28C27.5359 64.75 27.0908 64.5656 26.7626 64.2374C26.4344 63.9092 26.25 63.4641 26.25 63C26.25 62.5359 26.4344 62.0908 26.7626 61.7626C27.0908 61.4344 27.5359 61.25 28 61.25H33.25C33.7141 61.25 34.1592 61.4344 34.4874 61.7626C34.8156 62.0908 35 62.5359 35 63C35 63.4641 34.8156 63.9092 34.4874 64.2374C34.1592 64.5656 33.7141 64.75 33.25 64.75Z" fill="#B5B8BC"/>
<path d="M57.75 64.75H40.25C39.7859 64.75 39.3408 64.5656 39.0126 64.2374C38.6844 63.9092 38.5 63.4641 38.5 63C38.5 62.5359 38.6844 62.0908 39.0126 61.7626C39.3408 61.4344 39.7859 61.25 40.25 61.25H57.75C58.2141 61.25 58.6593 61.4344 58.9874 61.7626C59.3156 62.0908 59.5 62.5359 59.5 63C59.5 63.4641 59.3156 63.9092 58.9874 64.2374C58.6593 64.5656 58.2141 64.75 57.75 64.75Z" fill="#B5B8BC"/>
<path d="M43.5 20.5H27.75C27.2859 20.5 26.8408 20.3156 26.5126 19.9874C26.1844 19.6592 26 19.2141 26 18.75C26 18.2859 26.1844 17.8408 26.5126 17.5126C26.8408 17.1844 27.2859 17 27.75 17H43.5C43.9641 17 44.4093 17.1844 44.7374 17.5126C45.0656 17.8408 45.25 18.2859 45.25 18.75C45.25 19.2141 45.0656 19.6592 44.7374 19.9874C44.4093 20.3156 43.9641 20.5 43.5 20.5Z" fill="#B5B8BC"/>
<path d="M76.35 30H28.65C27.9472 30 27.2731 29.7893 26.7762 29.4142C26.2792 29.0391 26 28.5304 26 28C26 27.4696 26.2792 26.9609 26.7762 26.5858C27.2731 26.2107 27.9472 26 28.65 26H76.35C77.0528 26 77.7269 26.2107 78.2238 26.5858C78.7208 26.9609 79 27.4696 79 28C79 28.5304 78.7208 29.0391 78.2238 29.4142C77.7269 29.7893 77.0528 30 76.35 30Z" fill="#B5B8BC"/>
<path d="M77 91.0003C76.5359 91.0002 76.0908 90.8158 75.7627 90.4875L70.5127 85.2375C70.194 84.9075 70.0176 84.4654 70.0216 84.0066C70.0255 83.5477 70.2096 83.1088 70.534 82.7844C70.8585 82.4599 71.2974 82.2758 71.7563 82.2719C72.2151 82.2679 72.6572 82.4443 72.9872 82.763L76.762 86.5378L87.8167 70.7475C87.9452 70.5516 88.1116 70.3835 88.3063 70.2531C88.5009 70.1227 88.7197 70.0328 88.9497 69.9885C89.1798 69.9443 89.4164 69.9467 89.6455 69.9956C89.8746 70.0445 90.0915 70.1388 90.2835 70.2731C90.4754 70.4074 90.6384 70.5789 90.7629 70.7773C90.8873 70.9758 90.9707 71.1972 91.0079 71.4285C91.0452 71.6598 91.0357 71.8962 90.9799 72.1237C90.9241 72.3512 90.8233 72.5652 90.6832 72.753L78.4332 90.253C78.2867 90.4625 78.0961 90.6373 77.8748 90.7652C77.6535 90.8931 77.4069 90.9709 77.1522 90.9933C77.1016 90.9982 77.0508 91.0006 77 91.0003Z" fill="white"/>
</svg>
